<mxfile host="app.diagrams.net" agent="Mozilla/5.0 (Windows NT 10.0; Win64; x64) AppleWebKit/537.36 (KHTML, like Gecko) Chrome/140.0.0.0 Safari/537.36 Edg/140.0.0.0" version="28.2.0">
  <diagram name="Page-1" id="fJICZ-MeaEITeC7qqgLN">
    <mxGraphModel dx="2080" dy="2403" grid="1" gridSize="5" guides="1" tooltips="1" connect="1" arrows="1" fold="1" page="1" pageScale="1" pageWidth="827" pageHeight="1169" background="light-dark(#FFFFFF,#AAAAAA)" math="0" shadow="0">
      <root>
        <mxCell id="0" />
        <mxCell id="1" parent="0" />
        <mxCell id="cd-Q1LWHvFeCxKsnOngN-2" value="Morphologischer Kasten" style="shape=table;childLayout=tableLayout;startSize=40;collapsible=0;recursiveResize=0;expand=0;fontFamily=Fira Sans;fontSource=https%3A%2F%2Ffonts.googleapis.com%2Fcss%3Ffamily%3DFira%2BSans;fontSize=18;" vertex="1" parent="1">
          <mxGeometry x="305" y="-385" width="1160" height="1258" as="geometry" />
        </mxCell>
        <mxCell id="cd-Q1LWHvFeCxKsnOngN-3" value="Speisung" style="shape=tableRow;horizontal=0;swimlaneHead=0;swimlaneBody=0;top=0;left=0;strokeColor=inherit;bottom=0;right=0;dropTarget=0;fontStyle=0;fillColor=none;points=[[0,0.5],[1,0.5]];portConstraint=eastwest;startSize=40;collapsible=0;recursiveResize=0;expand=0;fontFamily=Fira Sans;fontSource=https%3A%2F%2Ffonts.googleapis.com%2Fcss%3Ffamily%3DFira%2BSans;" vertex="1" parent="cd-Q1LWHvFeCxKsnOngN-2">
          <mxGeometry y="40" width="1160" height="198" as="geometry" />
        </mxCell>
        <mxCell id="cd-Q1LWHvFeCxKsnOngN-4" value="" style="swimlane;swimlaneHead=0;swimlaneBody=0;fontStyle=0;strokeColor=inherit;connectable=0;fillColor=none;startSize=25;collapsible=0;recursiveResize=0;expand=0;fontFamily=Fira Sans;fontSource=https%3A%2F%2Ffonts.googleapis.com%2Fcss%3Ffamily%3DFira%2BSans;" vertex="1" parent="cd-Q1LWHvFeCxKsnOngN-3">
          <mxGeometry x="40" width="187" height="198" as="geometry">
            <mxRectangle width="187" height="198" as="alternateBounds" />
          </mxGeometry>
        </mxCell>
        <mxCell id="cd-Q1LWHvFeCxKsnOngN-5" value="" style="swimlane;swimlaneHead=0;swimlaneBody=0;fontStyle=0;strokeColor=inherit;connectable=0;fillColor=none;startSize=25;collapsible=0;recursiveResize=0;expand=0;fontFamily=Fira Sans;fontSource=https%3A%2F%2Ffonts.googleapis.com%2Fcss%3Ffamily%3DFira%2BSans;" vertex="1" parent="cd-Q1LWHvFeCxKsnOngN-3">
          <mxGeometry x="227" width="186" height="198" as="geometry">
            <mxRectangle width="186" height="198" as="alternateBounds" />
          </mxGeometry>
        </mxCell>
        <UserObject label="&#xa;" id="cd-Q1LWHvFeCxKsnOngN-6">
          <mxCell style="swimlane;swimlaneHead=0;swimlaneBody=0;fontStyle=0;strokeColor=inherit;connectable=0;fillColor=none;startSize=25;collapsible=0;recursiveResize=0;expand=0;fontFamily=Fira Sans;fontSource=https%3A%2F%2Ffonts.googleapis.com%2Fcss%3Ffamily%3DFira%2BSans;" vertex="1" parent="cd-Q1LWHvFeCxKsnOngN-3">
            <mxGeometry x="413" width="187" height="198" as="geometry">
              <mxRectangle width="187" height="198" as="alternateBounds" />
            </mxGeometry>
          </mxCell>
        </UserObject>
        <mxCell id="cd-Q1LWHvFeCxKsnOngN-7" value="" style="swimlane;swimlaneHead=0;swimlaneBody=0;fontStyle=0;strokeColor=inherit;connectable=0;fillColor=none;startSize=25;collapsible=0;recursiveResize=0;expand=0;fontFamily=Fira Sans;fontSource=https%3A%2F%2Ffonts.googleapis.com%2Fcss%3Ffamily%3DFira%2BSans;" vertex="1" parent="cd-Q1LWHvFeCxKsnOngN-3">
          <mxGeometry x="600" width="187" height="198" as="geometry">
            <mxRectangle width="187" height="198" as="alternateBounds" />
          </mxGeometry>
        </mxCell>
        <mxCell id="cd-Q1LWHvFeCxKsnOngN-8" value="" style="swimlane;swimlaneHead=0;swimlaneBody=0;fontStyle=0;strokeColor=inherit;connectable=0;fillColor=none;startSize=25;collapsible=0;recursiveResize=0;expand=0;fontFamily=Fira Sans;fontSource=https%3A%2F%2Ffonts.googleapis.com%2Fcss%3Ffamily%3DFira%2BSans;" vertex="1" parent="cd-Q1LWHvFeCxKsnOngN-3">
          <mxGeometry x="787" width="186" height="198" as="geometry">
            <mxRectangle width="186" height="198" as="alternateBounds" />
          </mxGeometry>
        </mxCell>
        <mxCell id="cd-Q1LWHvFeCxKsnOngN-9" value="" style="swimlane;swimlaneHead=0;swimlaneBody=0;fontStyle=0;strokeColor=inherit;connectable=0;fillColor=none;startSize=25;collapsible=0;recursiveResize=0;expand=0;fontFamily=Fira Sans;fontSource=https%3A%2F%2Ffonts.googleapis.com%2Fcss%3Ffamily%3DFira%2BSans;" vertex="1" parent="cd-Q1LWHvFeCxKsnOngN-3">
          <mxGeometry x="973" width="187" height="198" as="geometry">
            <mxRectangle width="187" height="198" as="alternateBounds" />
          </mxGeometry>
        </mxCell>
        <mxCell id="cd-Q1LWHvFeCxKsnOngN-10" value="Signalübertragung" style="shape=tableRow;horizontal=0;swimlaneHead=0;swimlaneBody=0;top=0;left=0;strokeColor=inherit;bottom=0;right=0;dropTarget=0;fontStyle=0;fillColor=none;points=[[0,0.5],[1,0.5]];portConstraint=eastwest;startSize=40;collapsible=0;recursiveResize=0;expand=0;fontFamily=Fira Sans;fontSource=https%3A%2F%2Ffonts.googleapis.com%2Fcss%3Ffamily%3DFira%2BSans;" vertex="1" parent="cd-Q1LWHvFeCxKsnOngN-2">
          <mxGeometry y="238" width="1160" height="227" as="geometry" />
        </mxCell>
        <mxCell id="cd-Q1LWHvFeCxKsnOngN-11" value="Analog" style="swimlane;swimlaneHead=0;swimlaneBody=0;fontStyle=0;connectable=0;strokeColor=inherit;fillColor=none;startSize=25;collapsible=0;recursiveResize=0;expand=0;fontFamily=Fira Sans;fontSource=https%3A%2F%2Ffonts.googleapis.com%2Fcss%3Ffamily%3DFira%2BSans;" vertex="1" parent="cd-Q1LWHvFeCxKsnOngN-10">
          <mxGeometry x="40" width="187" height="227" as="geometry">
            <mxRectangle width="187" height="227" as="alternateBounds" />
          </mxGeometry>
        </mxCell>
        <mxCell id="cd-Q1LWHvFeCxKsnOngN-1" value="" style="shape=image;verticalLabelPosition=bottom;labelBackgroundColor=default;verticalAlign=top;aspect=fixed;imageAspect=0;image=data:image/png,iVBORw0KGgoAAAANSUhEUgAAASAAAABUCAYAAAAiR+rjAAAABHNCSVQICAgIfAhkiAAAB+RJREFUeF7tmutyXDkIhL2pff9X3pSyPqkTBQSSEBdN59/oAt0fiBrb+frCPxAAARAAARAAARAAARAAARAAARAAARAAARAAARAAARAAARAAARAAARAAARAAARAAARAAgeoE/klk4D9GSyaNjET1MudRHcD44E1sjdEgnAeBDA1o/Sg9PFlr9qj1yRwezE/qR+wgAhkaB485qPgBaTP0W4BtpOQIRDfEpw6fCO6VWEfw4d4I1g8SiCq09BhWdEkxT2Bc0XlCR1TMCObN66dzj6q3eV7PQmqa1VOPOUwEZAloas9eDtxAPx6G7wFY03weOg6jRHgDAppeMUhjGgK9u4HzJDxNM53Mr8Xy1plBT6+75+itMROfnkXPqsJn7/qlZvLvAXVSk2QpgKTzAJqpkNH6ovNTsLx656R3TWwvnxRj1zXrATSCmwXqSKMr/EGyaI3R+QdoXLY0vXqS0W5sjX4XkFISK6EjYFY5JC/S/khju5tB50ijh77o/FINK++P2Eb58uipobdVARqYq7GHghc2Ja0ZdGbQyGnIwKcv+1trRn293udzz7jX3u9zcaLWe73bOqx/BHsLGsE0N0KQGOVvxz00ELL+WMqgcaQhA6Oe4UhvfzbTZ43uXd6aHJmYfJ0cQCOjK6C0xZFia+OM9O/sSfpabC+NnBav/LMcOb2zcbzPe+nW1s1Lj8hZK1gM9DqQxlwn+oRXLRctEy+NIz1eGrTs2jlOb0atvS9KewXdvY8jn71BUMU4YmwxqCWPGa+WeSXrnC5PDZLG9341vZL2rJxnamJ2tgIMrgHNICwEkrhpNEsxFmQNr4w0eWsZCv3erKa390Tpz8i51+36eRXIG+5qjB2jVHFbPEoLd3Yn/+hu08DlpPSNYlntZdMj+aqmt/dD6Y+qfa/N6rPJDIj6JbQVhHccrsDc+vsu1TCrGi1jrWrQeNNwscg/E2PELqNeyhvloYp2ys/RtVsG0G6Btfep5popkOa+VosmL5fPModGh+ZMJa2cH8pDRtacfvf1qgOoFZUq9mmAXDNZapmN1Wsa3e/PnualiV9NL+eJ8pGRN6dfWqf8SXfE/aoDSDQWeIBquiPF+/Y4E/t9ltLpjY3TnkHbLosbPDwMuDrtMgr7j4ic8GwPhNM5u65pxmNFZsR652NkkMsR2lqNuLxS/fp70nnSdNLF3pupzCzfgI6aNCV2Lths04KZbS1GPEd7lArq/Gx9qbiea5SHlv/xwe1PacwwgEyMTLm+4zDX0G+e1Bnwjqm/hjtVrxi1TlmjBxBXlI8rhFO9W5psbKWBqUHD9ZHmbqYzko/I2h3JHTmAKNhak9TdTI0ELb4EtH1jqYrrwV4Ld25FizZWr2ElV4uhzbcS/9edqAFEGbOAtgwCF0Fgg8Cod0d7T0rqPWzIMRkcGt07Gn/djRhAFOwdszt3RwB7nafyjDRg7zMISL3V96IHlZZT0rWtw3sAUSCPm1ygROlcCIMrIGBCQPtGrPv2iafNP23WcwBRcI4Zmybx/wVK42IoXAMBdwIW78n1DXgNIFdTk2WXtFkUdVISjoNAGIHW79KbMBO3MoDcxJm55ANJXqKHz1tftBaeInZuJnC071YG0M2wH29HoSsBSsNRGcbtGIalG+p7Eu0OIO1D1Z6LJJtFY7XB02pWUXNkryH3N4HdARQB8uZm57xlGY5UvTnN1NkMazd+UyvrqeIAsmziLA979IizaKS4U7qr6aV8VVqjalBGf/UBlLnZtU3ANVB2b5TuzJopvdoaZTx3hZ/qAyhjY1hoqviQM2umalJN79sDN3zKefpBVQZroQQyN1HVxu91Z2YsNV/v5Tlf0hO+AUnlxv5DoGrjc7orVpbyUnLwPPDxDahiG/KaqQblT9+/Q/Go+mBv8vK78/ANKP4RVn0Q8eTmFVRl7Tl8qFzzpJU3Zr8BuYpTesAxmoD1Y7OOR6vG6ptAe2/Um7umFvgGhIafIVCt8avpfWpBDZ2ZOpU5uzOAqha3THEgFAReBLK9NxM9OwMoqjtMjEeJR14QWCBwbc9XHEAL9cMVEChF4NqB01dh5pfQH/NzaQ8Jn0FAIIC3IQDitmcGEBcD6yBgRQAP2YqkX5znL3VLtcMA8isUMt1F4GN+TBqUbWnovOPNDCAAH1QCW8sE0FfL6EIvbg+fpn73l9AmIhYwomn/hhZVi7+VzK+gnvPMIm9QvbZUw9kBtJTkACkKAJXGS69XHsoj1kDAiwD37pb7f3YAeRm1ysMBe8dfhmcl8kCcGz0dwISQEwS4t7TVa7sDaCu5YJ4zLFyb3h7lOelvWigugIADgdbz/ZvoPz8ytt/HdgAHICspOGArsUZ3MvF7e86ka8Sv+l7fZzdy7z22mpn53P0GlLWBNIAosLN+pBgaHbM5cR4EvAhQ/W3a06bBvKg45KHAO6Q1S4G6mqEUA0V/8+R6dacHTsQkQe6IJAN+yCJXoFvtf1Kf3F5bTS0pBpp70/1/JOi0ivsuUAW8zyUcVSSgefN9/2ruLLE4FnhJDS5JBPrGkM5jHwR6AqnefCoxPSl8DifwyQMPb8Oh/QDZATJSHCGgHY7o8SP4ERQEQAAEQAAEQAAEQAAEQAAEQAAEQAAEQAAEQAAEQAAEQAAEQAAEQAAEQAAEQAAEQAAEQAAEQAAEQAAEQAAEQAAEQAAEQAAEQAAEQAAEQOBTCPwEHs7epXfOYo0AAAAASUVORK5CYII=;imageBackground=none;shadow=0;fontFamily=Fira Sans;fontSource=https%3A%2F%2Ffonts.googleapis.com%2Fcss%3Ffamily%3DFira%2BSans;" vertex="1" parent="cd-Q1LWHvFeCxKsnOngN-11">
          <mxGeometry x="9.5" y="52" width="167.99" height="49" as="geometry" />
        </mxCell>
        <mxCell id="cd-Q1LWHvFeCxKsnOngN-46" value="- Phoenix Klemmen&lt;div&gt;- Pro Kanal ein Signal&lt;br&gt;&lt;div&gt;- Differentiell/single ended&lt;/div&gt;&lt;/div&gt;&lt;div&gt;- &quot;dumme&quot; Treiberstufe&lt;/div&gt;&lt;div&gt;- externe DAC für PC benötigt&lt;/div&gt;" style="text;html=1;align=left;verticalAlign=middle;resizable=0;points=[];autosize=1;strokeColor=none;fillColor=none;fontFamily=Fira Sans;fontSource=https%3A%2F%2Ffonts.googleapis.com%2Fcss%3Ffamily%3DFira%2BSans;" vertex="1" parent="cd-Q1LWHvFeCxKsnOngN-11">
          <mxGeometry x="8.5" y="100" width="180" height="90" as="geometry" />
        </mxCell>
        <mxCell id="cd-Q1LWHvFeCxKsnOngN-12" value="USB" style="swimlane;swimlaneHead=0;swimlaneBody=0;fontStyle=0;connectable=0;strokeColor=inherit;fillColor=none;startSize=25;collapsible=0;recursiveResize=0;expand=0;fontFamily=Fira Sans;fontSource=https%3A%2F%2Ffonts.googleapis.com%2Fcss%3Ffamily%3DFira%2BSans;" vertex="1" parent="cd-Q1LWHvFeCxKsnOngN-10">
          <mxGeometry x="227" width="186" height="227" as="geometry">
            <mxRectangle width="186" height="227" as="alternateBounds" />
          </mxGeometry>
        </mxCell>
        <mxCell id="cd-Q1LWHvFeCxKsnOngN-50" value="" style="shape=image;verticalLabelPosition=bottom;labelBackgroundColor=default;verticalAlign=top;aspect=fixed;imageAspect=0;image=data:image/png,iVBORw0KGgoAAAANSUhEUgAAAWIAAAB6CAYAAACFrlk4AAAABHNCSVQICAgIfAhkiAAACSZJREFUeF7t3duu7DYIgOG9pb7/K3c3akfNYhwHE8DY+Xu3ZnyAD4xGvWh//eIfBBBAAAEEEEAAAQQQQAABBBBAAAEEEEAAAQQQQAABBBBAAAEEEEAAAQQQQAABBBBAAAEEEEAAAQQQQAABBBBAAAEEEEAAAQQQQAABBBBAAAEEEEAAAQQQQAABBBBAAAEEEEAAAQQQQAABBBBAAAEEEEAAAQQQQAABBBBAAAEEEEAAAQQQQAABBBBAAAEEEEAAAQQQQAABBBBAAAEEEEAAAQQQQAABBBBAAAEEEEAAAQQQQAABBBBAAAEEEEAAgV0Efu+SCHkgsLnA3zf58ZZvgCp/TfEqV4fYdhW4G6pZeVd8/zNtpnlMuzir07gHgckCcrAcb05+NjlEt+u182TF/LW5mTBDDzdFxCYE1hXQDJidB/G6ldNHHjIzQw7V58RKBJYV0AzdVnIV3pw19lY+UZ9lOlk8XONzPSyqIpyLwGQBy0OVIe/81p74VHfp5eYWu9tBsuv4G4FFBXoPT5sS70ortc66q75wqbXLIetYEikCXwJXD+xr4cUHvKELmE0/bvXL4x54fMCm2KS1r0DrIWmz5b1opfZe1+qhR73xaPPe1mS3gUDrwWjT4m1opd65rtVb5p4xb3ynPVkXFmg9jJFweQsjWqw9BGTPmXvIvJE6IDBRQD4ASyj0vkWNPVJA9qKpr/6Sp/I3AkUEZIM/Ccv0OJ5cyF4ERgRo0BEt1kYIeA7cIz56OqJKnNkTkD083IP8Iu7x8p2ngGxWj7OHG97jUs5AwFuARvYW5bxDwHPo0qP01AoC554f7ll+Ea9Q4poxeg7bI8Ph5q3JQlQIjAswiMfN3rjDc+gycN/YQeTcFWAQd3le9aXnsP3AMXRf1UIkaxVgEFvl1t3nPXAZtuv2ApEXEWAQFymEcxjew/YTHkPXuVAch8AhwCBevw+8hy7Ddv2eIIPFBBjE6xSMgbtOrYgUgSEBBvEQV+hi70F7BMuv29CScTgCPgIMYh/Hu1Mihqy8k6ErRfgbgUUEGMS+hWLg+npyGgKvEGAQ28ocOXD5ZWurSeQua72pZWRVNjqbRukX0/oAr07F+0pm7ufede5lQw/0dNb8TvbPcI35Rfyz8BLU2hbDhbBeNGGfl9GE0EtcefbbuU9KYK8SxJsbwWOgrOznkf8qfe4Vp7beFlvt2V65cI6PgKy1qY6mTT7xp54isUYvX9Hpac6jRjusj6yzth6RMexQo2o5yLqa6mfaVE2iEY/EaSzpfuTt8jSebrCTvvQ2mpTGlGs1/YDvlNIMXSrraK6ZeeNQuDmLJYr2Vi8D6/3aOKPWeeUfFd/u5971DfWp2wGyduZamTcWsJEImpCs+Vru0sSTscaac0Zs3PG/QK/HqGG9TpH1elSjR5uTbWTiyde7XLeSt0vCHDIscNXn9M4wZdiGVo0e1efR5rA0ff+fZ4FhNo+uatoMlg/LCrg/9rKZrhVYSF0qDo1WolVKVdGrig1x+Au03gI96O+sPTGsHlWK2kpQi6NZVyVPTaysQeAs0Hob9HNuj7RqcETgVge3g4wuVwn2jpsdcy82vkMgQkC+E95AhPL3mdL9vMK1Bq6HfefR/aSX5LFxZmzdwPkSgQkC8r3wPmxFkI6tWdNac77N3X7Wf2viKlH3BG21YhcCCGwicDVrzulp1rQGthvRrEEsE2AASxH+RuCnwPFGtAPjzXYRRuHzKfyCRkdIqBkxNMLiIwTKC/B22iWSLu1V45+mzabsX8RRYOPE7EAAgZUFRmeJHKpyv/w+1Sb78lLJp0pzGQI+Auc3lP1+fTKwnyLnR++kpWwyfxFLxKWgehXnOwQQCBGQM+PukmVnSuYgvkPkewTOAiOPcNkHSMl/CIzU/LNxi9rPGsRb4PGI1AKWB6Y+nIVLCjzpie3mR9YgfoK+ZJctFDS1WahYi4b6tMe2G7yyjlmDWN7L398CT5v1+8Q9Ptn+EQ6UaZUeeRrn62qeMYhlUV6HLB6a9Bh4h1sufXs/7FRUS29T/386IGMQ79Rod7lYGvHuzMzveRSZ2s/uqlQrbd9XivmZvvNuBrEeVNts+hPbK2nWtguf1hLQvgf6WVG37EE8syjaxlGwuSyZaeGSAIekClTpX00c9PZga0QPYk3RBkM2Lc+Og0Y0lYlNBQVG3g59byxg9CA2hlV6G81WujxbBieHYVQPyns0mFGxaO7eZk3mIK5SsCpxbNNEJLK0gGX4HgnzjhzLnjmIHcMePoqmGSZjQxEBOSg9elmeqUnV417NPa9c85ZB/MrikvTyApaB2Utaex5Dt6cY8B2DOACVIxEIErAOSM0Atp4dlOq7jmUQv6veZLuOgByelkEpz5DZW86UZ/C3gwCD2AGRIxBwFrgboHfX3e1nAN8JJn8fXRDZENH3JfNxHQKuAvK9fA7XvJurvecANee4JsRhOgF+EeucWIVAtMDVIL0bnlf7GMDRFXM8/67IHledGyXjPo+YOQOBLIHeIO29l96+T+y9/Vn5cY9CIKNQsmEy7lSkzhIEpgvIt6EZoFd7NHunJ0wAbYGModhqnIx72xnzKQLzBVpv4m6Q9vYce3lT8+tqjiCreLKJsu41w7ARgQAB+Q7OV1y9id6eY//VvoDwOTJKIKuIrWbKujvKboVzW+5ecVM/naSmBtLSskcXDatKCsgGiAzyqrkyY4jMz/PsKyvPO3Y8q0IvjdTuHK92X4Ucd+ydqTllF/Wq2bLjmIr+3+VXFhViI4Z/BSyDUmPX6ve7fmjt0dzFmgUEZhS313DWeHpnLlCGqSEe5tKv9dnUIDe5vNffsgZHyr31m5CQxsxCt5quVZG7RtSe0zp7hc/u8l8hh4wYK/YBtcuo/CZ3zG6Wig8ou7Sza5Cdb5X7rL1HvapUcKM4qjSV9VH0SlElt16MfIcAAgiU/HdQlqHM0KWZEUAAAQQQQAABBBBAAAEEEEAAAQQQQAABBBBAAAEEEEAAAQQQQAABBBBAAAEEEEAAAQQQQAABBBBAAAEEEEAAAQQQQAABBBBAAAEEEEAAAQQQQAABBBBAAAEEEEAAAQQQQAABBBBAAAEEEEAAAQQQQAABBBBAAAEEEEAAAQQQKCnwB5SltbRTldfrAAAAAElFTkSuQmCC;" vertex="1" parent="cd-Q1LWHvFeCxKsnOngN-12">
          <mxGeometry x="0.2999999999999998" y="37" width="185.7" height="64" as="geometry" />
        </mxCell>
        <mxCell id="cd-Q1LWHvFeCxKsnOngN-52" value="- USB-C Anschluss&lt;div&gt;- USB-Endpoint IC benötigt&lt;/div&gt;&lt;div&gt;- Kanalanzahl?&lt;/div&gt;&lt;div&gt;- Programmieraufwand&lt;/div&gt;" style="text;html=1;align=left;verticalAlign=middle;resizable=0;points=[];autosize=1;strokeColor=none;fillColor=none;fontFamily=Fira Sans;fontSource=https%3A%2F%2Ffonts.googleapis.com%2Fcss%3Ffamily%3DFira%2BSans;" vertex="1" parent="cd-Q1LWHvFeCxKsnOngN-12">
          <mxGeometry x="8" y="108" width="170" height="75" as="geometry" />
        </mxCell>
        <mxCell id="cd-Q1LWHvFeCxKsnOngN-13" value="Dante" style="swimlane;swimlaneHead=0;swimlaneBody=0;fontStyle=0;connectable=0;strokeColor=inherit;fillColor=none;startSize=25;collapsible=0;recursiveResize=0;expand=0;fontFamily=Fira Sans;fontSource=https%3A%2F%2Ffonts.googleapis.com%2Fcss%3Ffamily%3DFira%2BSans;" vertex="1" parent="cd-Q1LWHvFeCxKsnOngN-10">
          <mxGeometry x="413" width="187" height="227" as="geometry">
            <mxRectangle width="187" height="227" as="alternateBounds" />
          </mxGeometry>
        </mxCell>
        <mxCell id="cd-Q1LWHvFeCxKsnOngN-48" value="" style="shape=image;verticalLabelPosition=bottom;labelBackgroundColor=default;verticalAlign=top;aspect=fixed;imageAspect=0;image=data:image/png,iVBORw0KGgoAAAANSUhEUgAAAMIAAACXCAYAAABHooR1AAAABHNCSVQICAgIfAhkiAAACeFJREFUeF7tmo2u5cgJhG9Wef9Xzm5rxxMPougfQzfYFSlKjpuG4is4PjOanx/+hwRIgARIgARIgARIgARIgARIgARIgARIgARIgARIgARIgARIgARIgARIgARIgARIgARIgARIgARIgARIgARIgARIgARIgARIgARIgARIgARIgARIgARIgARIgARIgARIgARIgARIgARIgARIgARIgARIgARIgARIwJnAf5zzfSXd/wYbJd9BUKfDaNSaA6OLsJb954e+rJJbvEfga+CiF2FUFf0bJdWJI8gOIHGsLYDGUIubq+QTrWnzyfyyLAQ1bigabk+GqMa4yrlIT+1zlZNFE0TfEGs4T/GzNPU76kec6quv7Ofn3rubTrdEIx0UjEEDl50b0v3Eggw9y77cNLklekI44V0J/C7xDcys/lbsiGaC9LrVdUu0Qi/pnXDoSftuslDv3pJn5g5pmsnR1e+arFstdwAC3lR/mZPFZdXREZ5W3ZH7U9rcE05VzxOMoJOP7RHiZt+yv1isnGF+hCXukUh0jsCTzX6TkBdNSagfocn3c5yqiKB/mckUQOfgo3580XQEPPxbx3lw3pIO+bF1NrcWS+Acgs4lOGMO8mP7XG4veIa3+deCX2FwCL1aFi3AsS+kLwwBgv6F3tUpPPwwpR9vHgYE/Ni3zuEBzFAeeXJ8Do8LCHInLfCgfiukfeLJ/W7IzP63AsEJjQg23wITEJ1DkSchA72q/S2LgGBzAVYnw+ce8iXVErRW//Lp92gWBJtLcNQW+Dd16ZagYar8RuACnB10qzryJuUSVF0EBJlvAGs095whb9IuwIWl0hsBQb56SQ97zyweq4L8KeFLhUVAgLkAx2b+j8KWPyWWoHWTeREswE17Gcg55jVEBfKonDdZFwEB5gKEzPN00tf5k20RXgd4esTyX0AelXsL3FFnWQQE99JaGnL+2R5SaHlU3p8Mi/BqwEMjlj8IeVR+AS70GRZBG4PXANaaK/bs9UvQ/Mi4CFyCHJvyiQXI9Ebg4OcY/LuKTy1Ba/wN/+gu3xjVVvS5JWh2ZfxpVHuM6qr/5AJcdp1cBAReGyX+fNKo+D1DXnyG++5FQMB7lo7c+4xpPViT54jtp3juWAQEetKvbrhXnS8NgMbsS/3/HqroRdBAy4m2wI/cl/mefp6paWl/qiP6vtZn5X4e8YpsXAN9ifWsa9V5BMfhsmefDnJ+p9CYVdEaojMk6T+4K4P2HLjVXMiXO1cU06tZyZvWi9S72rfJJSTpLvFmZ3GH0pi4SvOZe35q2nt35lX43pCaQ/RGJN0i3Je1ezbJwL1AJ6Hmq6ZJi+ukPnJ81x6iOfoPy0eoJSi6apY2rCvtXHkuHVreVY0retLf8V4ECZyw50ZglZfkflVtz7Wc2rM5pS+L5r81eoehbbDRcMslQXFZSUj9ITojF6Ea8BDAm5NaC7FZSq1ykYtQi8S71PJLaNJPLsIksMLhVd8WW5ba+w/LhedkWPrKb9YtZooOWs0VrcMg3hTIRRh388lQybsnFmO80w9G8qfRmOlykMdu4SjvfLgST4YI8I3Qx4SGduRbHd1tVdvZSI6+wrGI3fXGVCWJ4iJgI9AQzwyvjEU5sQqebCHAn0Y6ZjSwcrD12/ipvI/q4AxzJ7Le3O0PRfON8KfZ1mCioZJ3UBwaK/5kQWQ2Puci/B+2HGhpQ+9cxqPPbVFkrqhlkHWQpszPt/TAn0b/DuUW2Ldp094auzVkHv7t2jzfCNWMtPReg2rFSLO04ZYx98/am8GKf3o2q+9pvVL3PRfhROMzgzqqb2RgRmJG6sllaP145R6pz5hfBCouQsTwXwMhh1B+3jE4XIYdlEWNSosQtQAnhv1ug3wrtDMuw+ZlqLIIvSU4PcyabXfNPX1oGVre3l2tNp9NEqjwt0ZoCdqAXP+dbDs8HGm2CqOBX8ll1eGZQqDCIiiyU39LPhlcLoPm9oZn2X8ayaFCg7IBlVlC6rwHz2q+4mXO9nkml7xvNvD1w8xvhApGNo2WzpnBlbOo3bVqyfv8PEEg8yLINrTBkDGZPnvo1XKsLIOWJxOr41qqLEIlI5tWT72euY4PXFYBWf+MsPKtd4LxriFtde5M2v/fVfsE1+01q7wRtoNhwW8RiHojVP62km+jLL3It4I1qbIHKzbz2bY+ot4Ing3sGsSm2VN35gGroG2rF1FvhAqg7xq3Qt8MZ9cXiVdbR7zIuAi7QaB61QbIaxBP5jnmRcZF2GXEMei7GixUB3nRWtjyhZR9EaIgIPBR9QrN5FapyIdtC3B1m30RIlxB8LkEEbT1nMiDK3q7F9kWoQdIxzr2FOXeDn1M7iujkAfHFuAqnG0RotxHBlRaAtSDZDYaJ+9Ffu5pOu5DhkVAkDzgoNzNdI/8kcPzhtwW/1QeZFiEKMORCW9YgNEeRuO8PUDsrzqndME+PRehNdcDAIU4Hlga0hlg9H3vo4pui31rNW0fnovQg2B47naENKQ1AHQu+5CfwbVjj3v60vP3XIRjLvwqjMxIb8JpcA/qI+ZXyjLs37AIyIwyJohBlP20Pu7PMvQlNcpdyqBRajI/e/7r09XmV+81M5AhqzlNWBsOUT8bSg+XsDQ27iXZV3wjWEY0NysagXpqvaCz4cl1CrR0VGT+BxbPRbBA9bwYMbyXv6oZqK8s/SB9Vb901Fn0/GmkFtj0MMvQeLV79SOHcHefsv69v91avNiqeTzfCGqB4IevMuMXK7QEwSj/SP+ZBbi69lyEZqAFsGekvN9y3Qf9jUMvmVg9Wmcyz+pny78d9Vd1P77nuQiPxSgJkDF3U1CMks58dMpora7sSYsxm1k4lDXvKXbUX5DsdyXbIjTgliFX5yMxs5RGc0YOxagG1NvKfetOZK+ohyPPsy1CgzC6DEeA/VPUGpxL0+wAWTlnc41yOVFzVNv2uIyLcC1D+1/LrNWhk5BHasg7vc9eOZ8sAbrb04bu9Xouff7Jphcd6w3QYlr12qovd40yR0+/jFeFvfXhp5sPMLU3bL2ST/yQte+55Nldx5OavX7KnJ/8aaSZU92UbPo1xtdwZtN6dGlOwrBMQlBO6kWaMjyXLBsn+YwLYDh18o1gyIJHNBeiGTrgFwnAlAUMGnAge+pxlh6nRE8ES3ZXv+j5ROrvhFYZEmmqp0NVGMieERNtEar2KHsO+1wdEBqGMGAi8Ql+Vs8n9OxiHVrnzeCsgQmFeij5m70MR/pleG9ZlC976LYghLiGMsMS0bs179RbhKliOfZQWzB6dMwOFiYBEiABEiABEiABEiABEiABEiABEiABEiABEiABEiABEiABEiABEiABEiABEiABEiABEiABEiABEiABEiABEiABEgAE/gYr4xZBlz5+ggAAAABJRU5ErkJggg==;" vertex="1" parent="cd-Q1LWHvFeCxKsnOngN-13">
          <mxGeometry x="26.05" y="47" width="134.9" height="105" as="geometry" />
        </mxCell>
        <mxCell id="cd-Q1LWHvFeCxKsnOngN-57" value="" style="shape=image;verticalLabelPosition=bottom;labelBackgroundColor=default;verticalAlign=top;aspect=fixed;imageAspect=0;editableCssRules=.*;image=data:image/svg+xml,PHN2ZyB4bWxucz0iaHR0cDovL3d3dy53My5vcmcvMjAwMC9zdmciIGhlaWdodD0iMzguMDEwNjE2MzAyNDkwMjM0IiB3aWR0aD0iMTYzLjc3Nzc4NjI1NDg4MjgiIHhtbDpzcGFjZT0icHJlc2VydmUiIGlkPSJzdmcyNzEiIHZlcnNpb249IjEuMSIgdmlld0JveD0iLTUuOTYwNDY0NDc3NTM5MDYzZS04IDEuNzg4MTM5MzQzMjYxNzE4OGUtNyAxNjMuNzc3Nzg2MjU0ODgyOCAzOC4wMTA2MTYzMDI0OTAyMzQiPjxkZWZzIGlkPSJkZWZzMjc1Ii8+PGcgdHJhbnNmb3JtPSJ0cmFuc2xhdGUoLTAuMzY2MjExLC0wLjk5MDIzMzgpIiBpZD0iZzI3NyI+PHBhdGggaWQ9InBhdGgxMzIiIGZpbGw9ImN1cnJlbnRjb2xvciIgZD0ibSAyOC41NjY4LDMwLjQyMyAxLjk4MTgsLTQuOTU0NCBjIDAuMDI5NSwtMC4wNzMyIC0wLjAwNzEsLTAuMTU2MiAtMC4wODAzLC0wLjE4NDQgTCAxOC42Mjk4LDIwLjc4NzMgYyAtMC43MjYyLC0wLjI3NTkgLTAuNzI2MiwtMS4zMDM0IDAsLTEuNTc5MiBsIDExLjg0LC00LjQ5OTggYyAwLjA3MzEsLTAuMDI4MiAwLjEwOTcsLTAuMTExMiAwLjA4MDIsLTAuMTg0NCBMIDI4LjU2ODIsOS41Njk0OCBDIDI4LjUzODcsOS40OTc2OSAyOC40NTcsOS40NjI1MSAyOC4zODUyLDkuNDkwNjYgTCAxNy4zNzQzLDEzLjg5NDcgQyAxNi4wOTA3LDE0LjQwODUgMTQuOTE0LDEyLjk1NzMgMTUuNjc5NywxMS44MDc0IEwgMjEuMzgxNSwzLjI0OTc5IEMgMjEuNDMwOCwzLjE3NTE5IDIxLjM5OTgsMy4wNzM4NSAyMS4zMTY4LDMuMDQxNDggTCAxNi4yMTMyLDEuMDAwNiBDIDE2LjE1MTIsMC45NzUyNjYgMTYuMDgwOSwwLjk5Nzc4NiAxNi4wNDQzLDEuMDUyNjggbCAtMy42OTA1LDUuNTM3MTEgYyAtMC4xODAyLDAuMjcwMjQgLTAuMjE1NCwwLjYxMDg2IC0wLjA5NDMsMC45MTIwNyBsIDQuOTk4LDEyLjQ5NDQ0IC00Ljk5NTIsMTIuNDg4NyBjIC0wLjEyMSwwLjMwMTIgLTAuMDg0NSwwLjY0MTggMC4wOTQzLDAuOTEyMSBsIDMuNjkzMyw1LjU0MTMgYyAwLjAzNjYsMC4wNTQ5IDAuMTA3LDAuMDc3NCAwLjE2ODksMC4wNTIxIGwgNS4xMDM2LC0yLjA0MDkgYyAwLjA4MywtMC4wMzM4IDAuMTE0LC0wLjEzMzcgMC4wNjQ3LC0wLjIwODMgbCAtNS43MDMyLC04LjU1NDggYyAtMC43NjcxLC0xLjE0OTkgMC40MTEsLTIuNjAxMSAxLjY5MzMsLTIuMDg3MyBsIDExLjAwOCw0LjQwMjcgYyAwLjA3MTgsMC4wMjk1IDAuMTUzNSwtMC4wMDU3IDAuMTgzLC0wLjA3ODkgeiIvPjxwYXRoIGlkPSJwYXRoMTM0IiBmaWxsPSJjdXJyZW50Y29sb3IiIGQ9Ik0gMC41MDU1NTQsMjIuODEyNiBIIDEwLjM5MzMgYyAwLjA1NzcsMCAwLjEwODMsLTAuMDMzOCAwLjEzMDksLTAuMDg3MiBsIDEuMTAyLC0yLjcyNSAtMS4wOTA4LC0yLjcyOTEgQyAxMC41MTQzLDE3LjIxNzggMTAuNDYyMiwxNy4xODI2IDEwLjQwNDUsMTcuMTgyNiBIIDAuNTA2OTYxIGMgLTAuMDc3NDEyLDAgLTAuMTQwNzUsMC4wNjE5IC0wLjE0MDc1LDAuMTQwOCB2IDUuMzQ4NSBjIDAsMC4wNzc0IDAuMDYzMzM4LDAuMTQwNyAwLjE0MDc1LDAuMTQwNyB6Ii8+PHBhdGggaWQ9InBhdGgxMzYiIGZpbGw9ImN1cnJlbnRjb2xvciIgZD0iTSA1NC40ODQsMy41MzcxMSBIIDQ0LjYzNTcgViAzNS45MDgzIGggOS44NDgzIGMgMTAuMjEyOSwwIDE2LjU1MDksLTYuMjAwMSAxNi41NTA5LC0xNi4xODQ5IDAsLTkuOTg0ODMgLTYuMzgzMSwtMTYuMTg0ODggLTE2LjU1MDksLTE2LjE4NDg4IHogTSA1NC41MjkxLDMxLjUzMDkgSCA0OS40MjI3IFYgNy45MTQ0NCBoIDUuMTA2NCBjIDcuNDMxNiwwIDExLjU4MDksNC4xOTQzNiAxMS41ODA5LDExLjgwODk2IDAsNy42MTQ2IC00LjE0OTMsMTEuODA4OSAtMTEuNTgwOSwxMS44MDg5IHoiLz48cGF0aCBpZD0icGF0aDEzOCIgZmlsbD0iY3VycmVudGNvbG9yIiBkPSJtIDkxLjkxNTIsMTYuNzEyOCBoIC0wLjY4NCBjIC0xLjUwNDcsLTIuMDUyMSAtNC4yNDA4LC0zLjIzNzIgLTcuMTEyMSwtMy4yMzcyIC02LjI5MTYsMCAtMTAuODk2OSw0Ljg3ODQgLTEwLjg5NjksMTEuNDg5NCAwLDYuNjExMSA0LjYwNTMsMTEuNDg5NSAxMC44OTY5LDExLjQ4OTUgMi44NzI3LDAgNS42MDc0LC0xLjE4NTEgNy4xMTIxLC0zLjIzNzMgaCAwLjY4NCB2IDIuNjg5OCBoIDQuNDIyNCBWIDE0LjAyMTcgaCAtNC40MjI0IHYgMi42ODk3IHogbSAtNi45NzU2LDE1LjU0NzMgYyAtNC4xNDkzLDAgLTcuMDY3LC0zLjA1NDMgLTcuMDY3LC03LjI5NTEgMCwtNC4yNDA4IDIuOTE3NywtNy4yOTUxIDcuMDY3LC03LjI5NTEgNC4xNDkzLDAgNy4wMjA2LDIuOTY0MiA3LjAyMDYsNy4yOTUxIDAsNC4zMzA5IC0yLjg3MjcsNy4yOTUxIC03LjAyMDYsNy4yOTUxIHoiLz48cGF0aCBpZD0icGF0aDE0MCIgZmlsbD0iY3VycmVudGNvbG9yIiBkPSJtIDE1Ny43MDYsMjQuOTY1IGMgMCwtNy4yMDM2IC00LjU1OSwtMTEuNDg5NCAtMTAuODk3LC0xMS40ODk0IC02LjMzOCwwIC0xMS40NDQsNS4wMTQ5IC0xMS40NDQsMTEuNDg5NCAwLDYuNDc0NSA0Ljg3OCwxMS40ODk1IDExLjI2MSwxMS40ODk1IDUuMzM1LDAgOS42NjUsLTMuMTQ1OCAxMC41NzgsLTcuNzUxMSBoIC00LjU1OSBjIC0wLjg2NiwyLjE4ODYgLTMuMzI5LDMuNTU2NyAtNS44MzYsMy41NTY3IC0zLjcwNywwIC02LjI4NiwtMi40MDI2IC02Ljc5MiwtNS45NzIgaCAxNy42ODkgdiAtMS4zMjE3IHogbSAtMTAuODk3LC03LjM4NjUgYyAzLjM3LDAgNS41NjMsMS45MzI1IDYuMTM3LDUuMTUxNCBoIC0xMi43NjIgYyAwLjc1LC0zLjA2NTUgMy4wOTgsLTUuMTUxNCA2LjYyNSwtNS4xNTE0IHoiLz48cGF0aCBpZD0icGF0aDE0MiIgZmlsbD0iY3VycmVudGNvbG9yIiBkPSJtIDExMi4xMTMsMTMuNDc2NiBjIC0yLjc4MiwwIC01LjMzNSwxLjI3NjYgLTYuNjU2LDMuMjM3MiBoIC0wLjY4NSB2IC0yLjY4OTcgaCAtNC40MjIgdiAyMS44ODUyIGggNC42MDUgViAyNS4xMDM5IGMgMCwtNC42NTA0IDIuMjM0LC03LjQzMTYgNi4wMTksLTcuNDMxNiAzLjI4MiwwIDQuODMzLDEuODI0MSA0LjgzMyw1LjY1NCB2IDEyLjU4MyBoIDQuNjA2IFYgMjMuMDk4MiBjIDAsLTYuMjQ2NCAtMi45MTgsLTkuNjIwMiAtOC4yOTgsLTkuNjIwMiB6Ii8+PHBhdGggaWQ9InBhdGgxNDQiIGZpbGw9ImN1cnJlbnRjb2xvciIgZD0ibSAxMjguNzA5LDYuNzI3NTQgaCAtNC42MDUgViAyOS41MjM1IGMgMCw0LjU1ODkgMS44NjksNi4zODMgNi40MjgsNi4zODMgaCA0LjEwMiB2IC00LjE5NDQgaCAtMy40NjUgYyAtMS42ODcsMCAtMi40NjIsLTAuNzc1NSAtMi40NjIsLTIuNDYxNyBWIDE4LjIxNyBoIDUuOTI3IHYgLTQuMTk0NCBoIC01LjkyNyBWIDYuNzI3NTQgWiIvPjxwYXRoIGlkPSJwYXRoMTQ2IiBmaWxsPSJjdXJyZW50Y29sb3IiIGQ9Im0gMTU3LjU3MSwxMy4xNzgxIGMgMCwtMS44NTc5IDEuNDI4LC0zLjI4NjUgMy4yOTUsLTMuMjg2NSAxLjg2NiwwIDMuMjc4LDEuNDI4NiAzLjI3OCwzLjI4NjUgMCwxLjg1NzkgLTEuNDI5LDMuMjY4MiAtMy4yNzgsMy4yNjgyIC0xLjg1LDAgLTMuMjk1LC0xLjQyMDEgLTMuMjk1LC0zLjI2ODIgeiBtIDUuOTEzLC0wLjAwODQgYyAwLC0xLjU0NTUgLTEuMDksLTIuNjQzMyAtMi42MjcsLTIuNjQzMyAtMS41MzcsMCAtMi42MjYsMS4wOTc4IC0yLjYyNiwyLjY0MzMgMCwxLjU0NTQgMS4wODksMi42NDMzIDIuNjI2LDIuNjQzMyAxLjUzNywwIDIuNjI3LC0xLjA5NzkgMi42MjcsLTIuNjQzMyB6IG0gLTMuNzc4LC0xLjY1MjQgaCAxLjM2NyBjIDAuNjk2LDAgMS4xMTYsMC4zNTc1IDEuMTE2LDAuOTM3NCAwLDAuMzMwNyAtMC4xNywwLjU4OTcgLTAuNDU2LDAuNzIzNCB2IDAuMTI1MyBjIDAuMjk0LDAuMTQzNiAwLjQxOSwwLjM1NzUgMC40MTksMC42OTY3IHYgMC44MTIxIGggLTAuNjI1IHYgLTAuNzQxNyBjIDAsLTAuMzkyNyAtMC4xNywtMC41NTMyIC0wLjU4LC0wLjU1MzIgaCAtMC42MjUgdiAxLjI5NDkgaCAtMC42MTYgdiAtMy4yOTYzIHogbSAxLjg1OCwxLjAwMDcgYyAwLC0wLjI3NzMgLTAuMTg3LC0wLjQ2NDUgLTAuNDY1LC0wLjQ2NDUgaCAtMC43NzcgdiAwLjkyOSBoIDAuNzc3IGMgMC4yODYsMCAwLjQ2NSwtMC4xODcyIDAuNDY1LC0wLjQ2NDUgeiIvPjwvZz48L3N2Zz4=;" vertex="1" parent="cd-Q1LWHvFeCxKsnOngN-13">
          <mxGeometry x="61.16" y="32" width="120.84" height="28" as="geometry" />
        </mxCell>
        <mxCell id="cd-Q1LWHvFeCxKsnOngN-14" value="Milan" style="swimlane;swimlaneHead=0;swimlaneBody=0;fontStyle=0;connectable=0;strokeColor=inherit;fillColor=none;startSize=25;collapsible=0;recursiveResize=0;expand=0;fontFamily=Fira Sans;fontSource=https%3A%2F%2Ffonts.googleapis.com%2Fcss%3Ffamily%3DFira%2BSans;" vertex="1" parent="cd-Q1LWHvFeCxKsnOngN-10">
          <mxGeometry x="600" width="187" height="227" as="geometry">
            <mxRectangle width="187" height="227" as="alternateBounds" />
          </mxGeometry>
        </mxCell>
        <mxCell id="cd-Q1LWHvFeCxKsnOngN-49" value="" style="shape=image;verticalLabelPosition=bottom;labelBackgroundColor=default;verticalAlign=top;aspect=fixed;imageAspect=0;image=data:image/png,iVBORw0KGgoAAAANSUhEUgAAAMIAAACXCAYAAABHooR1AAAABHNCSVQICAgIfAhkiAAACeFJREFUeF7tmo2u5cgJhG9Wef9Xzm5rxxMPougfQzfYFSlKjpuG4is4PjOanx/+hwRIgARIgARIgARIgARIgARIgARIgARIgARIgARIgARIgARIgARIgARIgARIgARIgARIgARIgARIgARIgARIgARIgARIgARIgARIgARIgARIgARIgARIgARIgARIgARIgARIgARIgARIgARIgARIgARIgARIgARIwJnAf5zzfSXd/wYbJd9BUKfDaNSaA6OLsJb954e+rJJbvEfga+CiF2FUFf0bJdWJI8gOIHGsLYDGUIubq+QTrWnzyfyyLAQ1bigabk+GqMa4yrlIT+1zlZNFE0TfEGs4T/GzNPU76kec6quv7Ofn3rubTrdEIx0UjEEDl50b0v3Eggw9y77cNLklekI44V0J/C7xDcys/lbsiGaC9LrVdUu0Qi/pnXDoSftuslDv3pJn5g5pmsnR1e+arFstdwAC3lR/mZPFZdXREZ5W3ZH7U9rcE05VzxOMoJOP7RHiZt+yv1isnGF+hCXukUh0jsCTzX6TkBdNSagfocn3c5yqiKB/mckUQOfgo3580XQEPPxbx3lw3pIO+bF1NrcWS+Acgs4lOGMO8mP7XG4veIa3+deCX2FwCL1aFi3AsS+kLwwBgv6F3tUpPPwwpR9vHgYE/Ni3zuEBzFAeeXJ8Do8LCHInLfCgfiukfeLJ/W7IzP63AsEJjQg23wITEJ1DkSchA72q/S2LgGBzAVYnw+ce8iXVErRW//Lp92gWBJtLcNQW+Dd16ZagYar8RuACnB10qzryJuUSVF0EBJlvAGs095whb9IuwIWl0hsBQb56SQ97zyweq4L8KeFLhUVAgLkAx2b+j8KWPyWWoHWTeREswE17Gcg55jVEBfKonDdZFwEB5gKEzPN00tf5k20RXgd4esTyX0AelXsL3FFnWQQE99JaGnL+2R5SaHlU3p8Mi/BqwEMjlj8IeVR+AS70GRZBG4PXANaaK/bs9UvQ/Mi4CFyCHJvyiQXI9Ebg4OcY/LuKTy1Ba/wN/+gu3xjVVvS5JWh2ZfxpVHuM6qr/5AJcdp1cBAReGyX+fNKo+D1DXnyG++5FQMB7lo7c+4xpPViT54jtp3juWAQEetKvbrhXnS8NgMbsS/3/HqroRdBAy4m2wI/cl/mefp6paWl/qiP6vtZn5X4e8YpsXAN9ifWsa9V5BMfhsmefDnJ+p9CYVdEaojMk6T+4K4P2HLjVXMiXO1cU06tZyZvWi9S72rfJJSTpLvFmZ3GH0pi4SvOZe35q2nt35lX43pCaQ/RGJN0i3Je1ezbJwL1AJ6Hmq6ZJi+ukPnJ81x6iOfoPy0eoJSi6apY2rCvtXHkuHVreVY0retLf8V4ECZyw50ZglZfkflVtz7Wc2rM5pS+L5r81eoehbbDRcMslQXFZSUj9ITojF6Ea8BDAm5NaC7FZSq1ykYtQi8S71PJLaNJPLsIksMLhVd8WW5ba+w/LhedkWPrKb9YtZooOWs0VrcMg3hTIRRh388lQybsnFmO80w9G8qfRmOlykMdu4SjvfLgST4YI8I3Qx4SGduRbHd1tVdvZSI6+wrGI3fXGVCWJ4iJgI9AQzwyvjEU5sQqebCHAn0Y6ZjSwcrD12/ipvI/q4AxzJ7Le3O0PRfON8KfZ1mCioZJ3UBwaK/5kQWQ2Puci/B+2HGhpQ+9cxqPPbVFkrqhlkHWQpszPt/TAn0b/DuUW2Ldp094auzVkHv7t2jzfCNWMtPReg2rFSLO04ZYx98/am8GKf3o2q+9pvVL3PRfhROMzgzqqb2RgRmJG6sllaP145R6pz5hfBCouQsTwXwMhh1B+3jE4XIYdlEWNSosQtQAnhv1ug3wrtDMuw+ZlqLIIvSU4PcyabXfNPX1oGVre3l2tNp9NEqjwt0ZoCdqAXP+dbDs8HGm2CqOBX8ll1eGZQqDCIiiyU39LPhlcLoPm9oZn2X8ayaFCg7IBlVlC6rwHz2q+4mXO9nkml7xvNvD1w8xvhApGNo2WzpnBlbOo3bVqyfv8PEEg8yLINrTBkDGZPnvo1XKsLIOWJxOr41qqLEIlI5tWT72euY4PXFYBWf+MsPKtd4LxriFtde5M2v/fVfsE1+01q7wRtoNhwW8RiHojVP62km+jLL3It4I1qbIHKzbz2bY+ot4Ing3sGsSm2VN35gGroG2rF1FvhAqg7xq3Qt8MZ9cXiVdbR7zIuAi7QaB61QbIaxBP5jnmRcZF2GXEMei7GixUB3nRWtjyhZR9EaIgIPBR9QrN5FapyIdtC3B1m30RIlxB8LkEEbT1nMiDK3q7F9kWoQdIxzr2FOXeDn1M7iujkAfHFuAqnG0RotxHBlRaAtSDZDYaJ+9Ffu5pOu5DhkVAkDzgoNzNdI/8kcPzhtwW/1QeZFiEKMORCW9YgNEeRuO8PUDsrzqndME+PRehNdcDAIU4Hlga0hlg9H3vo4pui31rNW0fnovQg2B47naENKQ1AHQu+5CfwbVjj3v60vP3XIRjLvwqjMxIb8JpcA/qI+ZXyjLs37AIyIwyJohBlP20Pu7PMvQlNcpdyqBRajI/e/7r09XmV+81M5AhqzlNWBsOUT8bSg+XsDQ27iXZV3wjWEY0NysagXpqvaCz4cl1CrR0VGT+BxbPRbBA9bwYMbyXv6oZqK8s/SB9Vb901Fn0/GmkFtj0MMvQeLV79SOHcHefsv69v91avNiqeTzfCGqB4IevMuMXK7QEwSj/SP+ZBbi69lyEZqAFsGekvN9y3Qf9jUMvmVg9Wmcyz+pny78d9Vd1P77nuQiPxSgJkDF3U1CMks58dMpora7sSYsxm1k4lDXvKXbUX5DsdyXbIjTgliFX5yMxs5RGc0YOxagG1NvKfetOZK+ohyPPsy1CgzC6DEeA/VPUGpxL0+wAWTlnc41yOVFzVNv2uIyLcC1D+1/LrNWhk5BHasg7vc9eOZ8sAbrb04bu9Xouff7Jphcd6w3QYlr12qovd40yR0+/jFeFvfXhp5sPMLU3bL2ST/yQte+55Nldx5OavX7KnJ/8aaSZU92UbPo1xtdwZtN6dGlOwrBMQlBO6kWaMjyXLBsn+YwLYDh18o1gyIJHNBeiGTrgFwnAlAUMGnAge+pxlh6nRE8ES3ZXv+j5ROrvhFYZEmmqp0NVGMieERNtEar2KHsO+1wdEBqGMGAi8Ql+Vs8n9OxiHVrnzeCsgQmFeij5m70MR/pleG9ZlC976LYghLiGMsMS0bs179RbhKliOfZQWzB6dMwOFiYBEiABEiABEiABEiABEiABEiABEiABEiABEiABEiABEiABEiABEiABEiABEiABEiABEiABEiABEiABEiABEiABEgAE/gYr4xZBlz5+ggAAAABJRU5ErkJggg==;" vertex="1" parent="cd-Q1LWHvFeCxKsnOngN-14">
          <mxGeometry x="19.999999999999954" y="47" width="134.9" height="105" as="geometry" />
        </mxCell>
        <mxCell id="cd-Q1LWHvFeCxKsnOngN-54" value="" style="shape=image;verticalLabelPosition=bottom;labelBackgroundColor=default;verticalAlign=top;aspect=fixed;imageAspect=0;image=data:image/png,iVBORw0KGgoAAAANSUhEUgAAASUAAABvCAYAAACq09bJAAAIJ0lEQVR4AezdP28cRRjH8Wf2DkMXKXIXURCloCAKPaIwFU18tmx3ICiQTkEoeQWJlCBeQCIEOikdrnCsi5MmVVLRgxIJpEg0EaLAoLjE8u3yPBYrHSh7f3d2Z3a/aIe73O7NPPN5nF/OjuNLtnuDP/4df+otozcox2B98J1M+G+rN7jaWG/2Xtj5Nvd9Z2dwxva/0xs81o/909yx+1u9u5fHwRL9hY1VvT3LkDINlLP4cE7O6Nky1wtpLt1a8cHeS/04i6LvW5cHb8uxDJ3I7UzkomTySO8/1fuXnIwebI/9QWaBVPzRwxkEEEBgSQF7hZQk8o0G0JqOa1kq77vX5QtZkU23Iuc1oHbFyUd5MBFKS4K3/ensH4FpAumxfKJhpIHUWU+T9LFL5IfsWF7q+DX7W76+96D/cR5Mm5vfvkMoTRPlPAIILCWgIbOhExzuH3z2MElfe0vvn82ks65BddNeIVkQnb5y0hOdLNnU6/UeBwIIIOBBwD510/C5pK+EHv13+pGF0+lDFlR7e/0j/cWhy2SNUFIJDgQQqFZAv8h924ZksmuvoMZXJ5TGNbiPAAKlCtgrIA2fn/TTtA/HJx4l6UV9/Ilzcs4et0/h9HY1c/KEUFIJDgQQ8CeQitwXkdXtjcF1SUfP9VO53W43eZGm8nmWyW8WSN00uaPXSDaSvcTuMBBAAAFfAvsH/Tv2qkjD6JbryI59UdteQe0/7P+iofSVBZJ+3WlNX03dsMcIJV+daOK87AmBRQVWZFNDaVfHrexYXubf0e0S+TkPpHv3+1/a9ISSKTAQQMCrgL0ysu9HyqSzrsG0q6+cntoQJzfs60t5IFkRhJIpMBBAoBIB+5s2C6e9g/4HNiyMhsMrz8YXJ5TGNbiPAAIeBWabmlCazYmrEECgIgFCqSJolkEAgdkECKXZnLgKAQQqEiCUKoKObxkqRqAeAUKpHndWRQCBAgHfoXToRJ4UDa3pUIe3o2jd/HFvC88wcZZ1fszrqON2hhKjvWSaZ7Qbm6HwJuzdbyhl8si+F6FoiJPTf+8yg/VCl9i/rSlce0U2dVKvoajzFx72/RpFtfl+3H7inxZW2951ba9HyH33unGdPKC9azWLHX5DabGaeBYCCCwokHbT7oJPDeZphFIwraCQsgSa8BuzLIsY5yGUYuwaNSPQYAFCqcHNnWNrXIpAMAKEUjCtoBAEEDABQskUGAggEIwAoVRTK+xHgNpbGPsa9i4SNW2NZVsoUOaWCaUyNeeYy97fyomcvqODj9uTk/TNOcrhUgSCESCUgmlFuYUkJ8lJuTMyGwLVCBBK1TizCgIIzChAKM0I1aTL2AsCIQsQSiF3h9oQaKEAodTCprNlBEIWIJRC7g61IRCigOeaCCXPwEyPAALzCRBK83lxNQIIeBYglDwDMz0CCMwnQCjN5xXf1VSMQGQChFJkDWtCuSOXDjORa75Gt5u8aIJTW/dAKLW18zXuezi88mz/oH/H19jb6x/VuD2WXlKAUFoSkKcj0GyB6ndHKFVvzooIIDBBgFCagMMpBBCoXoBQqt6cFRFAYIIAoTQBJ75TVIxA/AKEUvw9ZAdzCPA3c3Ng1XQpoVQTfJuX3erdvbzTGzyua6j9qg6OQAUIpUAb0+SynBu9m4ms1TWabLvk3oJ4OqEURBsoAgEEcgFCKZfgFgEEghAglIJoA0UggEAuQCjlEvHdUjECjRQglBrZVjaFQLwChFK8vaNyBBopQCg1sq1sCoHpAqFeQSiF2hnqQqClAoRSSxvPthEIVYBQCrUz1IVASwUIpUgaT5kItEWAUGpLp9knApEIEEqRNIoyEWiLAKHUlk6zz3YLRLR7QimiZlEqAm0QIJTa0GX2iEBEAoRSRM2iVATaIEAohdhlalpW4C+d4FCH3Y6P/DE9xRGqAKEUameoa2GBTDqfuhW5oOP8/8aFLJX3dGILKr3hCFGAUAqxK9S0nEA6em7vWvKqkbwhv+vkqQ6OQAUIpUAbQ1mLC6TdtLv4s5vwzLj3QCjF3T+qR6BxAoRS41rKhhCIW4BQirt/VI9A4wQIpdpbSgEIIDAuQCiNa3AfAQRqFyCUam8BBSCAwLgAoTSuwX0E4hNoXMWEUuNayoYQiFuAUIq7f1SPQOMECKXGtZQNIRC3AKFUbf9YDQEEpggQSlOAOI0AAtUKEErVerMaAghMESCUpgBxGoGQBNpQC6HUhi6zRwQiEiCUImoWpSLQBgFCqQ1dZo8IRCRAKHlsFlMjgMD8AoTS/GY8AwEEPAoQSh5xJ02dZXI06XyTz/nee3KSnBT52ZsJFJ3j8TAECCVPfXBOzm31BleLhsJveFq69mnr3rvryE6R+/bG4LoCKb/+P/SjpfXRHE+Nz0TWnMjtomHnPS1d+7S2t6J92+N23muRmdyydV41RM/p2md1cAQqQCgF2hjKQqCtAoRSWzvPvhEIVIBQKqsxzIMAAqUIEEqlMDIJAgiUJUAolSXJPAggUIoAoVQKI5MgsKwAz88FCKVcglsEEAhCgFAKog0UgQACuQChlEtwiwACQQgQSgu1gSchgIAvAULJlyzzIoDAQgKE0kJsPAkBBHwJEEq+ZJkXgWIBzkwQIJQm4HAKAQSqFyCUqjdnRQQQmCBAKE3A4RQCCFQvQChNN+cKBBCoUMBCqbE/hS/tpt0plqtTzkd7eoa9W++j3R+FLywQfN+TTOSat+E630+iG7l06G1t3Ve3m7woWt9+gLzPteuee9LezUTru6nDX+/Vv5Xzh/8x76/vU/ZuH3ezjH8AAAD//1LPxG8AAAAGSURBVAMAz25wvUDqxdMAAAAASUVORK5CYII=;" vertex="1" parent="cd-Q1LWHvFeCxKsnOngN-14">
          <mxGeometry x="105" y="32" width="76.55" height="29" as="geometry" />
        </mxCell>
        <mxCell id="cd-Q1LWHvFeCxKsnOngN-15" value="AES67" style="swimlane;swimlaneHead=0;swimlaneBody=0;fontStyle=0;connectable=0;strokeColor=inherit;fillColor=none;startSize=25;collapsible=0;recursiveResize=0;expand=0;fontFamily=Fira Sans;fontSource=https%3A%2F%2Ffonts.googleapis.com%2Fcss%3Ffamily%3DFira%2BSans;" vertex="1" parent="cd-Q1LWHvFeCxKsnOngN-10">
          <mxGeometry x="787" width="186" height="227" as="geometry">
            <mxRectangle width="186" height="227" as="alternateBounds" />
          </mxGeometry>
        </mxCell>
        <mxCell id="cd-Q1LWHvFeCxKsnOngN-51" value="" style="shape=image;verticalLabelPosition=bottom;labelBackgroundColor=default;verticalAlign=top;aspect=fixed;imageAspect=0;image=data:image/png,iVBORw0KGgoAAAANSUhEUgAAAMIAAACXCAYAAABHooR1AAAABHNCSVQICAgIfAhkiAAACeFJREFUeF7tmo2u5cgJhG9Wef9Xzm5rxxMPougfQzfYFSlKjpuG4is4PjOanx/+hwRIgARIgARIgARIgARIgARIgARIgARIgARIgARIgARIgARIgARIgARIgARIgARIgARIgARIgARIgARIgARIgARIgARIgARIgARIgARIgARIgARIgARIgARIgARIgARIgARIgARIgARIgARIgARIgARIgARIgARIwJnAf5zzfSXd/wYbJd9BUKfDaNSaA6OLsJb954e+rJJbvEfga+CiF2FUFf0bJdWJI8gOIHGsLYDGUIubq+QTrWnzyfyyLAQ1bigabk+GqMa4yrlIT+1zlZNFE0TfEGs4T/GzNPU76kec6quv7Ofn3rubTrdEIx0UjEEDl50b0v3Eggw9y77cNLklekI44V0J/C7xDcys/lbsiGaC9LrVdUu0Qi/pnXDoSftuslDv3pJn5g5pmsnR1e+arFstdwAC3lR/mZPFZdXREZ5W3ZH7U9rcE05VzxOMoJOP7RHiZt+yv1isnGF+hCXukUh0jsCTzX6TkBdNSagfocn3c5yqiKB/mckUQOfgo3580XQEPPxbx3lw3pIO+bF1NrcWS+Acgs4lOGMO8mP7XG4veIa3+deCX2FwCL1aFi3AsS+kLwwBgv6F3tUpPPwwpR9vHgYE/Ni3zuEBzFAeeXJ8Do8LCHInLfCgfiukfeLJ/W7IzP63AsEJjQg23wITEJ1DkSchA72q/S2LgGBzAVYnw+ce8iXVErRW//Lp92gWBJtLcNQW+Dd16ZagYar8RuACnB10qzryJuUSVF0EBJlvAGs095whb9IuwIWl0hsBQb56SQ97zyweq4L8KeFLhUVAgLkAx2b+j8KWPyWWoHWTeREswE17Gcg55jVEBfKonDdZFwEB5gKEzPN00tf5k20RXgd4esTyX0AelXsL3FFnWQQE99JaGnL+2R5SaHlU3p8Mi/BqwEMjlj8IeVR+AS70GRZBG4PXANaaK/bs9UvQ/Mi4CFyCHJvyiQXI9Ebg4OcY/LuKTy1Ba/wN/+gu3xjVVvS5JWh2ZfxpVHuM6qr/5AJcdp1cBAReGyX+fNKo+D1DXnyG++5FQMB7lo7c+4xpPViT54jtp3juWAQEetKvbrhXnS8NgMbsS/3/HqroRdBAy4m2wI/cl/mefp6paWl/qiP6vtZn5X4e8YpsXAN9ifWsa9V5BMfhsmefDnJ+p9CYVdEaojMk6T+4K4P2HLjVXMiXO1cU06tZyZvWi9S72rfJJSTpLvFmZ3GH0pi4SvOZe35q2nt35lX43pCaQ/RGJN0i3Je1ezbJwL1AJ6Hmq6ZJi+ukPnJ81x6iOfoPy0eoJSi6apY2rCvtXHkuHVreVY0retLf8V4ECZyw50ZglZfkflVtz7Wc2rM5pS+L5r81eoehbbDRcMslQXFZSUj9ITojF6Ea8BDAm5NaC7FZSq1ykYtQi8S71PJLaNJPLsIksMLhVd8WW5ba+w/LhedkWPrKb9YtZooOWs0VrcMg3hTIRRh388lQybsnFmO80w9G8qfRmOlykMdu4SjvfLgST4YI8I3Qx4SGduRbHd1tVdvZSI6+wrGI3fXGVCWJ4iJgI9AQzwyvjEU5sQqebCHAn0Y6ZjSwcrD12/ipvI/q4AxzJ7Le3O0PRfON8KfZ1mCioZJ3UBwaK/5kQWQ2Puci/B+2HGhpQ+9cxqPPbVFkrqhlkHWQpszPt/TAn0b/DuUW2Ldp094auzVkHv7t2jzfCNWMtPReg2rFSLO04ZYx98/am8GKf3o2q+9pvVL3PRfhROMzgzqqb2RgRmJG6sllaP145R6pz5hfBCouQsTwXwMhh1B+3jE4XIYdlEWNSosQtQAnhv1ug3wrtDMuw+ZlqLIIvSU4PcyabXfNPX1oGVre3l2tNp9NEqjwt0ZoCdqAXP+dbDs8HGm2CqOBX8ll1eGZQqDCIiiyU39LPhlcLoPm9oZn2X8ayaFCg7IBlVlC6rwHz2q+4mXO9nkml7xvNvD1w8xvhApGNo2WzpnBlbOo3bVqyfv8PEEg8yLINrTBkDGZPnvo1XKsLIOWJxOr41qqLEIlI5tWT72euY4PXFYBWf+MsPKtd4LxriFtde5M2v/fVfsE1+01q7wRtoNhwW8RiHojVP62km+jLL3It4I1qbIHKzbz2bY+ot4Ing3sGsSm2VN35gGroG2rF1FvhAqg7xq3Qt8MZ9cXiVdbR7zIuAi7QaB61QbIaxBP5jnmRcZF2GXEMei7GixUB3nRWtjyhZR9EaIgIPBR9QrN5FapyIdtC3B1m30RIlxB8LkEEbT1nMiDK3q7F9kWoQdIxzr2FOXeDn1M7iujkAfHFuAqnG0RotxHBlRaAtSDZDYaJ+9Ffu5pOu5DhkVAkDzgoNzNdI/8kcPzhtwW/1QeZFiEKMORCW9YgNEeRuO8PUDsrzqndME+PRehNdcDAIU4Hlga0hlg9H3vo4pui31rNW0fnovQg2B47naENKQ1AHQu+5CfwbVjj3v60vP3XIRjLvwqjMxIb8JpcA/qI+ZXyjLs37AIyIwyJohBlP20Pu7PMvQlNcpdyqBRajI/e/7r09XmV+81M5AhqzlNWBsOUT8bSg+XsDQ27iXZV3wjWEY0NysagXpqvaCz4cl1CrR0VGT+BxbPRbBA9bwYMbyXv6oZqK8s/SB9Vb901Fn0/GmkFtj0MMvQeLV79SOHcHefsv69v91avNiqeTzfCGqB4IevMuMXK7QEwSj/SP+ZBbi69lyEZqAFsGekvN9y3Qf9jUMvmVg9Wmcyz+pny78d9Vd1P77nuQiPxSgJkDF3U1CMks58dMpora7sSYsxm1k4lDXvKXbUX5DsdyXbIjTgliFX5yMxs5RGc0YOxagG1NvKfetOZK+ohyPPsy1CgzC6DEeA/VPUGpxL0+wAWTlnc41yOVFzVNv2uIyLcC1D+1/LrNWhk5BHasg7vc9eOZ8sAbrb04bu9Xouff7Jphcd6w3QYlr12qovd40yR0+/jFeFvfXhp5sPMLU3bL2ST/yQte+55Nldx5OavX7KnJ/8aaSZU92UbPo1xtdwZtN6dGlOwrBMQlBO6kWaMjyXLBsn+YwLYDh18o1gyIJHNBeiGTrgFwnAlAUMGnAge+pxlh6nRE8ES3ZXv+j5ROrvhFYZEmmqp0NVGMieERNtEar2KHsO+1wdEBqGMGAi8Ql+Vs8n9OxiHVrnzeCsgQmFeij5m70MR/pleG9ZlC976LYghLiGMsMS0bs179RbhKliOfZQWzB6dMwOFiYBEiABEiABEiABEiABEiABEiABEiABEiABEiABEiABEiABEiABEiABEiABEiABEiABEiABEiABEiABEiABEiABEgAE/gYr4xZBlz5+ggAAAABJRU5ErkJggg==;" vertex="1" parent="cd-Q1LWHvFeCxKsnOngN-15">
          <mxGeometry x="32.99999999999996" y="47" width="134.9" height="105" as="geometry" />
        </mxCell>
        <mxCell id="cd-Q1LWHvFeCxKsnOngN-56" value="" style="shape=image;verticalLabelPosition=bottom;labelBackgroundColor=default;verticalAlign=top;aspect=fixed;imageAspect=0;image=data:image/png,iVBORw0KGgoAAAANSUhEUgAAAGoAAAAtCAYAAABGfP5DAAAQAElEQVR4AexbC5gcVbGuOjPdvUk2CSAEElQQBHkjAczObEIWECEqII/IzmyCESWi6AUxXBUIX0C88hD9BIELiCDJzCyGICoSCaCRZGbyMIIgj4AYLiQEAph3dqZ7+tT9q2c37m5mk92VEC6X/rr6nFNVp86jzqNOnRlDfXjcxtTBgM87yfRX3WTqUi/ZfKubSD/oJVKPuYl0wU2mF0XQ0Fz0qrgHvWT6duS53Eu0nA9as9MwYSTRtD6V24cqvmdZe+6wpvH18URqLDr3e/GG9L1QzjIS/hvgHia6mYivEjKTiWmcMI9BmCCioyMwpqEdN06Ivow8VwjLT0HLsbFL3MTS5fFk6tduY/o6r7FlHDVN2gm099+t9EBXRR052fFGp052ky1Z14+vNcxzkfcyY+gMJtqb3q6HebghPoWEpojIg67vr0aZD7iJVIoazxn8dhXzXpJjosaMGb+bl2y5yfU2bBDLvyGSFBFXadTbR55iK7eD+yqyPEOEXka8D698hpizrpTWusl0rm50ep8+ZH7PsxonmZ7ohs4qIfkaWusC+voujsXth/1C7rDygtxkv5Cd6i/ITAyK2b0M03Es9EYfBWLyUrO19CIGz7f6mPc9y66zZmp/W4fOnAXFfKLtsdZXasko5bN/LPvBfkL277Xo28IJySX0qYmDtsX3/4FuWGSPfjZ0bcXGvxLlbWqKe7DqPFiBTrJFDYoIHX2WzFwbk9h5UbyvH6FB9RuoR0UNOnr8HlGZiVS1Hn2Uj7qe6ybTQk2pXR1dWZLpsjcqvV8fxbwj7IaY/P6VxD+lRXe/pXnj/vBZatWpFcgki7xE+kTFd0CpmHkU8YcAfX2DDaEt9ZTJjzunVMuk6/pjOaKuu6jsupLUawhw2ItVEL7rXiPEm/pXK/mb5nMaWxqg7VM03gFCdFFHvCME7rmOeK9DppAG+LYnfmaY/kpkHgzLsWNWsdOY/pKbTE1QEhRYh4EzpS6ZOi5Kj2oZUj0WpL8Jg2d3xVmODQ7qY/ehjueXBr35quJ0ZkHGHW6y+U53TMtBituRYFB4G6DPLzOv1UwxS1ssTTgrbYkj3qD8fQF03GqaO7NmPixVH4eso4n5apj4z4D3S0jri8lNP0PkJgANaisPFabrLMlETbtGCtVjAf2Imb6pON94LzkbbJoJ58N1w103kTpAYvQ8EZ9DZCZRKE+7janP0w58sEdRtHz1vQ5ofk+ZLG85C5hi1MeHhV/vKQuTvUBpfn6/S8nwj5hov3blKRrA0B3RRrfSXhez3B2VOoyYDibhK2EEQU90Cxi7vF6ltAcItyrSL9cPUj6NI88WvBH+HfoYlLMG0PcXB66+Z+prDvlnzRzjx8fQcWcozWlceg7W7yM1DmV9TsMqSLTX1Id1QEeYshjWWQhd0eIIQ/xiFFbKHIX4sOEPC/EYRB+nJbdF2wKIf0J6lx1pgRph7pfpjIpv91eMLK1ViLMifjZhXyKhkIVvx15zrvLBnJ9EOLyTyGrQ6hTXCeJizDJNY4oN0xBL5kANO0NowrVCtJxI9u3Ag3+vKD5neqS4KP4Of3Am1Uq9w6X2sjgo4bVarBjh0d5CVkbq0uQXsw74rmLivdyKe4IQ3wVFDvKS6bk+hw+DhlcGVPIz5iFCTHKb29gym1iqZ8gBjkEc+iAKSkOegZIvI+IhbqJlAcz3RQz3GQbB9QTtAXbIa5ir1tvbWjoz2vbvS0TnrOouZdCo1O4stEaIbvAX5p7cTBf+pRA/y2z3CPz6bxPZB4QoYUletGJh0fFLymstj7YsK0XsSCG+2VqaRetdHxvoP6CgJQMHbhoKr8rdTHQBlHcYZuehxHxJUMhN0fw7CowNTc1R268KCYXt+TrC9mT/AsNb1m3jwtyqcjE3NihkL+gs1S9mngoKmYPKhdyPsbcEfqH1ZL+Q9Sr53OmVYusZ4I+MgcqCTL5SyH0oKOR2DwrZCysLsmeCf5N6UTAzj9o0b8ZKlVsuZG9A/oF+MTfAz2d+oLgdCSYuglEr0bTvT0VKa/15ThAMdym2u8uxEfGYGVE2dFp/ZHXPA6/JM91xSEs7IKj5Kr0m4f8y0rQtzCwXoWhZoP48z8z0Ny6e+dqGwvRVCtGInJ9d3R9RXfJY+WupkP2fLjhNqMU3qmUIdQa9z2qa1N14UO5tw+j0zk6y5dy6hua9t83873G4ydQZdYmW4/sjxWgmmKQLNOwP6I2t25j+q4eN20mmHwE86zSmftwfWV3yGH6uS7o9UbfSG+PGZK0bs6vdKEQc91mO71/dztKnwLF8phoX1pjIcuxT5r4wf+LsDxDxvTiNt1I/nqqiiP7c57xsoiUmxrIzCR2GxFhswMcDDjDCR21NXq9oIv+oyRcK9n1CkWYpjIoLwTONyd5mmOYg/q8XN9TUfZbhYrT7xWRcYg8y8RQO6S7q/Bw5eWDNc5NebCbGD+jMGsW1rCPHD43i3T+6CizaB6uMTBThyV3ITU3x9jpxF3y3ciJFEZnqwa8L57YS6KaeWbY0JmBm9cy+JcXEYl07vhuLoXBeuZj9CTb8K8qF1q+U89kHnWTLDfFk6hWvsXm+6zvr3bK/3mtMf1qzqq/P9da/iYvJdXARPe4kU687yfSkNi8oh2QvtHE7NLrdTqTXu4n0Q7hE3ehuCDc4jS1Vzz+WV09/ByKldS47m9zG9JUqV8FNpi6Fr7HN9Zw1bkNzUXG6NEP+Mpj3S9wVTsVNLL0KShoJS/JwHQBOIvW005D6g+OP+EdUp2R6dpQPH08vcavlrAHfc24i/edIUeWKzIUZCo2Dq5evhPYHqEQOpu513bOIyOEQjo5Lz0FlH4knmu+Hqd3Sna/HtMjKUtvAfI90ENDoFrch9YSXSK9CGeqdJ0MywBB/MCRWA+kyYoqTle+AnWAt/ZKIh2B4YRbyKiYehjZ7bmiGaR4W3ktCuLmY6pFvNxwwvoF5i+bZawiPE5RnCvMYY8yxoF+KKT013pgaHU+kxhLxVSR8nRjbQMY0QIm/oLgnjPMXEY0ELCI2f2ESzCY+gfwS4zmQDR/LzLBG7QPgOdEbfdb+dY3pY9FXX7NCv2XiS0D/GJR7hAED0cLMOmtIfx9BvX4MHw7eZsARgK4v805ozDgmOgFwPMzsUxmH0a5MPafE0NMwmYOeOWpTQks7K6VSGnyWX8h935KsEMNDvUTqJCL+ADFfrbMQHXop4THMHlVwkkI8etnENWSyUzFDf4rO/wtBuU6i+Qi2hOVc1oUSflQsDSc8hvgYQ+YziIJVPArN4VB+CYPjBMeWDlQ8Eef8QnaUX29mo/xBzKFQmUIiYiF6NDL9he8gPGJjI9GGkxEl7J1fKxcy1yPP74nYGGp/jKVF7dEdH1iT21Yl0MqsvyD3cXT8MJyHIkvKMHX5YYwRMvB8C7ok1i5vXXvYQ4BxrBSJsQaAasgxVSBkcIXhB2SmoQTHLhT2iBXZB3zoTxoOmtZDDalvCQv4lVL1OWqsR2C0pp3Y0YZYzFTvCUOUAtq/FOXE70G6x1fELkMzMB3pZ8T0PbR+Mpaa45nNAfqbCSeUPfxYMEzBxZlKcWzCjxksFVgDvgzBVzDzrZbofpHaPjzwRK8hfiyKbOUjzIfosuMm0uOdZMu5MBx2glqiqxca/LxoVvAYwYyKhxwZSyj3gvrkxGEs5lSlW+ZqZ2iiMxg2nZOBa5cRkx4VdonF7GWYIV+A8k3guU9iqEcOXnT1fL+YOUuMeRm536y49EIkA4VEYftHJMbk78xREon2MEoz0zpUXJdB8slOGjhmwnC0qUF5Nleo9Nj0ZSS0RJFgfsWy/IpJ/gONTaBiJii27lMpZk/Bif1cP5+9PChkbi8Vcn8o52csbTOvrdw4oLKR7OASxahtg1vapLjy/HueL82fMTfIZ+/wC9lp5XzmvEohe1pQzB2ANNpGR4iQXvi1CgaClo0a/6lcnLFtRzFTwjDPJaZfop63eX55Itb2FSqD1u/PGjJGKgoZDm/G6yyiS/Ewn0LEozIJyxSy2ohX+XuEubm3DPFn0T8bwop5GXszxhtd5gSlQ9COa4j59+iznwCPiSS3iJgjaFWlOntj1RlRUzYq3BlvhfeEvF9jydZfgl1TCa0aebugniXTmdEYuhhLxeFYSj6srpdyIXdjkM8s8EalP+omWtJuIj0VlWl1k6mnAGsBIdLi+iOCyMpSS0WtrQiAS6YFdOsmUuucROppbL73YaO90kmkz3YTLYeinCeCYvY2VC4VYCBwSPtbsd/sXKfu8dJO/5yvs1XBWPsRNGBvFrNf2a3c6fqVa4hih9KS2yqajy2PYWN0LyUysWXQ24koi9HLl0V0lt38Bfc8K2yP9nnAHAUh/kTZKf9B6Ubsmdof1NQUK+Hw7Rf3HwrFn8TCJ/vuq06Qb/2z8vn5zDiy4UHQ/MRYyB/yC5lradgbVuvnM11I+szZt41YDsEqlEb92kj4sFgsPklJvhnwqNYhcJ2Zmob872u5Ptftjvo8i4FQh3YqqQqlfPaPvsOvoDNP9xLpW7xkep6bSAcSo+dRSIaY1CQ9i4gPAQwBdMlPtR8m5sEY3QcZ4dNIaCoz/QLynoQSBfIXe4nmn7m4Oi+7wRoo7PHaYtqxs2eX9VdPCqUFrS9pB0YzEDfB6iHxC9P/Bk4BkOLL+RlLNR5KeK0Iz0GZv0f5t6JT3/JNBRYXUdTh+Z+vJ0BQyCzuuFVW+b46fufOjRRPNM1iT3yoXMw8QJtxKp1IFe4XcjPa4OmJMKBrfprf4aWZZv187ukSFA66+PBNlvLTq7991HJV6XPvWuNiAKN+C4npblfaCpjyByL+wy062rN0LTpzljCdh9aOBlMcgru8wL9gSX4DvjmA2QrW0izglndllCeQ/4eY4dcLLBzwlbvQNcF0lLDBNTpP90LnvxS1PaDiVlqieojsrXXyh67Zk+bNfGN7lNVHmV3YVYGG6Tg2tBYrwFom+1k/n73YdOFCIhSZgWCrrxG6qVLIneoXsycCPq2gXuiYcLQRQiEhrMgT/GLuCC0kKOSmBIXsJy3T7K0JllBu3Bq9Mw3L6GivEQfbROpVrzF1MekJvzND9zhmXKD1KGJ/RMMJM7PKMs24iRQOtqmHq+kev9xeBvfI8TYRSljZsO2MLedbR+Mw/zsVu4WiKsXcn7BP3KfEHoGhChBd7FlOMv2sLifoONz5SGRNYTZ+o7Qg+4iXSE8BTRCucpMtWSLBWQQZa7yYjfdGy0wNWneUC6+AEZ4numkzuSJ8reePWEmRP60797bS07Bl8Uu8jese7Kvn6l7sJVJdfgq3LelvF93UEsQcu7oWfjOOCY1Dtxs5hokOAP5EdNxpxNxxEFRrhayhvQkPFLcbuFMGXgMka75M/P2ahFpIofMV7Rey9X4htyvyThGiXd14eKzi44nmpA4MhLPqGtKfVFwE8Ll5jamLXXURYZDRuHGe4oXlZorJrzSuALfT1yOeokiI1AAABbFJREFUZDqqU90xEz8CnqlKs8wX1Y2e0OQ2pi6vS6aOUxw1pfQHnNejzDOj9Hb4mFoyA91QiabXokU4y9G+xdZcxEZOEaFRutQx0ZsRncPLNQzy2a8zzlIs9N9I1z6zgKD0oJB9AtHevUILldFNpO4EHFDGCd4vZNkvZPTvQRMNm3w0MNicjsHysAMrU/njK+L3CWYf4scT05XeuqGPUlNTnIlvIsv/CTy5DS3TRehG0HX2X+Im0zPCSqXJtA8ymPljQmsPJOHvVISjPnJ9Uof0RTCjD1QZ2wNMT0JjEv8uqbOjJwbgfc95xYTOXwI9+MXsM8JcARr1NY0wx1/04BDVsxQspa/69bFd0HlPKb0brI1Xgiu64baa9ItZdbTeScxfADzrNras9BITPqqZjND1GvqF/WOqPG0DNuUp8URqrCE+BUq5GfnjqOR3sXQ2OsGeRyG+2rJ9ZWBj8wgyMkENI+T9AAupad3CMbOQmbVMwpMKCtlbWGwWm/4INznxECKOlnwjNlIcbYfH9CSzrXj3Ckz3i2rS2YaKd/3S9JAry13fb6uIWYEG76F4BTRsH4zM32FE6h51Ac2ZvlGE1UOh5M0gIt9Ws3ozYluR9gtDdOQ5/prAgyV3vpYrbF+IJ9PHCGPPIsJF6LRoeYYil5Dw/qjP6YQHConMf7+YuxoyOBjhLwbPzoZkQ8XGRoGFYHEd6eDcZ5mif5NIReoVHwGmazU00T4uFH6ZifQPe49G5nhEfPs/Zmsig0LuZpKeLTUrGL+1BAhhZkm1o0APhfR3cugA2Yjk5hcM9wfFHM40m1HbjDgm3FcvDL1kei49M9OP6kg0jfAw80dQ3xdY6INIRq8luxf2r9fRmUVFsIAHEZ1hagA5y2OHIbmJ2LhCIRRM0Bs/h3odErMWezCfGBSzi8jKwaSPYCgghNP2QWJ6EnIvgPxdmelOoLfbu1VFaamOlS9ixHa7AkG1QKxQcJbv4nRvaBcdnSQU7U1keIJfyMWsSJNg/1LTHexEFp6PKKIfeasSC+D213jvISi2Po6OeRgwFvvTq5ix8HDTNMITDPlnK8bOrejAuJNMveQk088b4j2xj97hF7KtmL16+L0E+R43cD+xUGPcxt5A+wxDoSobYhYjfVI8mbrfGv6tiG0FjshQ++83+F5d0iOc5YeikPk1f3UwM4pvp4/Zllz1kxky4zvzoZOSXrL5Mx7Fxzpl3icucvBAOBCZuX3pk0/r3UoFpr6ORjeZPtVNpp4k3VPaBWFZ+Vx/D5xBIfspEf6SMGYobpeJaSbD/aRnoyCfU6fxBNAdFtlDmL/q53PqUaHAr4wCb5aYP27F/jpwvY9FngQ2v8J+FZ2j4BpKCsn1hvgkERooxkQuLZ1BaPdPtPoiEt3wCsrVNJHM09ldjW+fr+mN2FIx8ygq+cVOvGcJmQeEeTYzLTTC8+BAfBUN1H8tot50ttjYUihIFJDvfiI+lNofdMAXKvnc/PZkv4KgmPl5UGjdzy9m434++/nywmzVWw1pSGcqxeyefjE3JMhn1OIkAp6WzFzr57MtmF1cKbZ+juCyUbRfyKSBu0Lj6hoKCrkpSHtBMbdvkM/8IsLjExSyFwIP6zI3yxk94XAmiWRbMjeCvF3fXilKa4BK3gWl1DYulKGXgMZ9Kyhm7+4l+7uWja29GJUbKQwvTX5G9AtcpLfb22tFaQ0w/X/MRF1++Kj43oLmhWvkR73lfzfz+eX6yb4bDA5wVnwn6tknRWmFyoXsDcQU/ZNC070FxtVAlLe3Gd7tfPpPj7m1/7u1PareZ0VpJfx89j7GHZAlWa7prQH2o5eNoX2jq4GtMb5P22oP9EtRKrFcnPH3SiH3ISa+WdO1gHH1jv1or9L8bO3f6NXK9D6uZg/0W1Ed0sqFzPmYWUmydgHMPVw/C4AWWyK46TPndfC9H/57PfC/AAAA//99NKclAAAABklEQVQDAMOpg10BR6qoAAAAAElFTkSuQmCC;" vertex="1" parent="cd-Q1LWHvFeCxKsnOngN-15">
          <mxGeometry x="108.00000000000001" y="32" width="73.02" height="31" as="geometry" />
        </mxCell>
        <mxCell id="cd-Q1LWHvFeCxKsnOngN-16" value="Bluetooth/WLAN" style="swimlane;swimlaneHead=0;swimlaneBody=0;fontStyle=0;connectable=0;strokeColor=inherit;fillColor=none;startSize=25;collapsible=0;recursiveResize=0;expand=0;fontFamily=Fira Sans;fontSource=https%3A%2F%2Ffonts.googleapis.com%2Fcss%3Ffamily%3DFira%2BSans;" vertex="1" parent="cd-Q1LWHvFeCxKsnOngN-10">
          <mxGeometry x="973" width="187" height="227" as="geometry">
            <mxRectangle width="187" height="227" as="alternateBounds" />
          </mxGeometry>
        </mxCell>
        <mxCell id="cd-Q1LWHvFeCxKsnOngN-47" value="" style="shape=image;verticalLabelPosition=bottom;labelBackgroundColor=default;verticalAlign=top;aspect=fixed;imageAspect=0;image=data:image/png,iVBORw0KGgoAAAANSUhEUgAAAUEAAADbCAYAAADzhCOgAAAABHNCSVQICAgIfAhkiAAAE+pJREFUeF7tnYmy2EYRRQPF//8yIDty5Ovu2fc5VKWKJ/Vy+/SCXmLgr7/4FwQgAAEIQAACEIAABCAAAQhAAAIQgAAEIAABCEAAAhCAAAQgAAEIQAACEIAABCAAAQhAAAIQgAAEIAABCEAAAhCAAAQgAAEIQAACEIAABCAAAQhAAAIQgAAEIAABCEAAAhCAAAQgAAEIQAACEIAABCAAAQhAAAIQgAAEIAABCEAAAhCAAAQgAAEIQAACEIAABCAAAQhAAAIQgAAEIAABCEAAAhCAAAQgAAEIQAACEIAABCAAAQhAAAIQgAAEIDCDwL9mJCUnBCDQhMB/jSjstAEl9AhgITq8g0AZAes4lUVq78XOC1OAtB8yIt5FYOWDl9KJ62/A9QBSpgQbCAiB3Q9fqKHX3YTrCg51n3cQSCSQcwRX2bEczS+GVbQntqXM7Ioiy9DgBQGXgHVQdtslqwa34P+/2K2+UC2/vTu2sGQCGEIgn8D3gJyyQzlH8ZSaf3T+qGLyZxkPCEDAIHDVQeQIGhPAIwhA4BeB4w8iR5BphwAEUgmkHsSt7spWYlM7hR0EINCdQMpB3OK+bCGyeztJAAEI1BDY+iByBGtajy8EIPAlsOUx5AgyxBCAQGsCWx1DjmDr9hMPAhD4EogdxOk3aLoA5gUCELiCwLLHkCN4xfxRJASWIbDcMeQILjMbCIHAVQSWOYYcwavmjmIhsByB0DEccp+GJFkOO4IgAIHVCEw7hhzB1UYBPRC4m4B3DLvdqm6B7+4j1UMAAhUEvEP4hGx+s5oHrCgcVwhAAAJfAt4xbHq3/g1zCEAAAosSaHrsvBqHJPGS8xwCEIBAIgH9Kmx2u/gSTOwAZhCAwFIE9CgWi2t2TYsV4AiBuwh8l5f9y+u9Hr4m/JoEyasDawhsSUAXsHcR7KZNWPtQzak6gK2TpxA4hoAu3azC2NWf5K1+VLHh7wnOGmnyQiCPwLP81gHIi7K/ddXBs8pvHtBKwjMIbExAD0/vndF8HrreOry8qzxXTsU8ih1XIYEOCBxOQJddy711h5VLMYdiR+0EP0MAAl0J6NJrsht3WZkUMShyUvr8DAEIDCOgi6+Jb9ppZVFUe5GTUudnCEBgOAE9AF8BN+31l0NR3UVOw9tNQghAwCNw+zHU+rNvGn9ExhstnkNgDwLP0nuLrwdij4oGq+QIDgZOOgh0InDrIfTqTsZcHSA5E4YQgMAoAtYX4Mm7rvVm1cqX4KixJA8ExhGwjsBzKPRYjFO0cCaO4MLNQRoEKghYh/AJd+Ih9GpNwscRTMKEEQS2JOAdhxMPYXGDOILF6HCEwBYEnkNoHUMO4d/ts+Bs0VlEQgAC2QS8w3fCHdDakmviSzB7jnCAwLYEvMOgB2TbAkuEcwRLqOEDgX0JnHoIvbqineIIRhFhAIHjCPD3CT8t5QgeN98UBIFkAtbX03W/GnMEk+cFQwgcSeD6Q8gRPHKuKQoCWQSuPoQcwaxZwRgCxxK49hBahR/bZQqDQAGB1n+PbPWds+pdXfPb1q/2ZM3/KRgKXCBwAwHrGLSou2hRWyROjPEcj161J0oYa8avw2N5k20PAqOOwJNnVK4c8voVtaLGnHqCtnwJBvHwEgK/COhhyEUTOiTvu9ocuZpy7B+NK+vLqeU3W45gMTocLyHQavG/cbyDuNIxvObX4lYNvmQfKBMCTQl4x/BJsspuqsZVdFmN+GpN1snfE7RQ8gwCYwg8i+otqx6fMYouzMIRvLDplLwcgdAhnH0MVdtsPc2bxxFsjpSAECgiwFdhEbZ6J45gPUMiQKAlAf3yemPP/ALzNLWse1osjuA09CSGgEsg9FXoOg18MfMgNy+TI9gcKQEh0IyAfoEddXyaUaoMxBGsBIg7BAYTmHUI9SAPLrtfOo5gP7ZEhkALAtbxmXUIW9TTK0YxE45gr5akxX0a9/6V5oHVjQSsQ3gjhy4181+b64K1KGjKf5KxDEVoj3B6ev+dkeffMw92a7O4cARtiKs+TTmUpdqzBqc0CX4QWI0Agz+/Iz0PW4/qmJkeVNNj6ryM7Mc398i8KXSKtfElmIK3r03KMOng91UUjh7TklJPOANvITCQAEdwIOyKVD0PS+yo5cr24vWsIVfjzvYPR4/xznVN085gTkO/XeLei8cspo+E9mIUu+JfOdNLG2/Jl+AY5jq0T9ZRg9uqwpheq8ac3DH/WP6cXNhC4BcBjmD/YYgtd38FYzJ4R6pV/V4cL++YqudkeWr2eMxRtHFWjmDf5jGo8S/eWkYx/xuPZN+pPiw6R7BPQ0OLyVL+zjzGI8QypXsp/jENKXmw2ZQAzW/fOG/pYN2Wtce5bZb4l2zrfKnxvvUzW6nUDDvgGVAqHnmLCecKqIWuXi8Kw/1yW6WXHMHaTv7tv0pDG5UzNYy3dDCe2pZgcq9nQafPy5m95QimdiliN7OJEWnbvPYWqYatF1Oh1OTQWPrz7Uu2Qg+0J9+fb+9PiE3Wu55LlCVkU2NvUWq5enEtTK1zvfFUQ20eS/tOz5THV/sMNhzBRtPD/55gOUhvKUYvhKcjpbIc3xzblNy72Tx9ff/aTTt6AwT4IzIBOIFX1kHodfysuFb+gFzzVSzGkzdmYwYOPEyNZ9UcCDv8VQ82w4sg4U8CHMH8SbAWefTS1i5hag21eV66Vr4Q+dd+NNeQptXewaZRRziCeSCtZWYYwwwtZmGPf95+feGcSg27LAIcwTRc3iL3WszvF9iTW/N4elKqsXw1fkqcFBsr1+Pn5fPsHx8OYgpxbLIJcATjyLzF9BY5HjHfwtOQG8mKE6rDsk/NafmGcj1x3/eW7zfv7IMY05fKCLsFCPBPh8NN8IY9tszhqG3f1mip8Q1VYXHLyfXYvn+F8jzvrFwxn5r3o/PVaMU3gQBfgj4ka9hzFtmPnPbmyWVp+Hrn6NFYMd9c+1BVsVypvqop5DfqXU1tozSSJ0CAI2jDsZZtxrC/OVVPrhb1t6tu87Rnrm/dPfN4JDRnbh+8uDyfSIAj+Cd8HfTHYvawt84fi6cMYvYvRfXrxc7K82cneQKBBAIcwX8geYuVegAScG9h4nEoEX8SO+VyUm0lvT3Gh38w8rOVOuBvg08ddK9e6/lqDFTjCH2a85gDQCHzf81boQfegI9YrpH1e3WGNLRkoPlLYmuMR3tJnFDN1jvNOyKnpYNnHQjc/OuwDvaLlwH/SaI3hy//lFxWv1L8atdG847IWasZ/wwCt/46rIN9wwF8ljd1gVPtMkYtaPr0w+uJ5zhCY64mTyvPFyYwYpBWKj801LexmNWXUA9eTdoL9dH3vWqZlbdXPcQ1CIwaJiP18Ec60N7CDRd2cUKvJzEkI+ZWtY3IGaub9x0I3NJYHWgOYIdhqgjp9ccKOWJmLT0j8lr18qwzgdMbaw3zg/T0ujuPTbfwXr/ehKP6pjpG5e0GlsA+gZObq4M8epF86rxZmYDOzck7snIfhmk78Y/I6BB/YTLQw0aLRBDYg8BpR8E7gLPq9PT0mo5ZdfaqZ3Rc7Rc8R3dgQr5TvgR1eL8obxrkEIfYeN3EyWJRw86Kx7NNCJxwBL3hvX2pc0fQ45gb5xTup9SR27/r7HdudGhpR9T1zT8iX2g4QyxCfqPfzebk1av8VtXp6ed5BYFdvwR1aF8Eo4bXy1/RiirXmrpH1vLmqtFbBQpnCCiB3YYxtLAja1EdI3NrD1f5WZnEdK3CTHWvoivGj/eNCOz0JajD+iIYPbSejkYt2TZMqA8Ws+dZyGdbEAjfi8AOQ2gt0EoHMIVhqIbvxKTE2mvCflerHGbXu5qenXu7rfbVvwR1SGcdvyevpSW2xJZPaFhy7TVWTI/a8zMEriew8hH0DsIqix7T4envOXSxnDHNPbWtFltZwWa1Dg3Ss+IR1OF8UcwcUk+T1ybP3qvBs/filz738ni6SvNYfpp7RE5Lx/NMtXh2PL+AwMxBtPB6wzlTp6UppCfX3uKQ88zKl+Mfsw3VGvN931saW8RNza92qmemFtXGz4MJrNR8HcwXxUyNlqaQnlz7Ue22dJXmDtXvxdT8JTG82LnPV9KSqx37DgRW+HVYh/Itc+aiPBosXbmacu07tPhHSE+HVWNMw+PjxbN8NUeOrxWPZxBoSmD2EdQFeYtbcVFimrSWmH3TRhYGC2nUekpStIhRktfzUT2h+r0YPD+MwMwjqAP5ol1hMFVbTJPanzAm35pb1Rfj2JNbqxp6aiT2BAKz/i83vYGcuSQvfk+b1x7LfoU6PL25z7W+1NpK/XL1ldqn1lEaH79NCMz4EtTleFCtMpAttK1SS4sRtHikxC31S4ldYqN6TupRCQ98PgRGfwnqMD5SVhnIEm3qs0otvYa8tL5SvxZ1aI9axCTGQQRGHkFrGGcuR6yNMW1WPbGYO73X+mI83tpK/XqwUS1PjtQ6eugh5oIERh5BLX+lYdRliWlT+9OWy6pP+2f9XOpnxerxLNbXHjmJuTiBUUdQl2OlYVRtJS1bqZ4S/TGf0vpK/WJ6Ut636GtKHmw2JzDiCO42jLHF1Xpi9ruNSGl9pX49+KiWJ8dpferB7cqYvf/pcI9h/MasHWzVF4un9lcOzYZFx/q6YUlIbkVgxJfgV+tKw5h70Cz7leppMRNaY2p9pX4tNGuMlbSoNn5ekEDPI9hjGDVmKVIrTmjhc+1Lde3oZ7GZVcdKWmYxIG8mgV5HsMcw9oj54uIA/vk/GBFiEhqzUr9QzJR31nzM0pKiF5tFCPQ6glpej2EsjanLEoqjtk9dIXut+/Sflc8sNqqDPp0+eQ3r63EEdSBbLEarmBonhNKybVFLKOesd1rr7nXurn/WHFyZt8cRbA1SF7RlfG9ZrJyebUs9O8VSRrP4rKJjp96h9UOg9R+RGTGQpcuWok1tXlSlOXcYNq05pVb1mVXnKjpm1U/eBgRW/xLUIU9ZUAuLxrFsvGelOb14Jz5fhdEqOk7s8bE1tTyCemhqB1LjtWyCpc3KZ9m11DE7ltacUm+JT486V9HRozZiDiTQ6tdhHcgeJaQsqJVXtaXG+dp9Y6T6W1p2f6YsZ9Wzio5Z9ZO3IYFWR1Al1R4KHfLSeBpHdXo/h/KdchCVTajmEk6eT+1z1f3EK9FeqwP/Qwi0OII6lLUDqfFaog5pC73zNLxaS3y9mKs+176sUvMqOlbtG7oiBFocwUiK6tethrwmzuOrR+BbmL6ryVUNLCFArl61T0jRxUR1rM65CwSCtiVQewR3GspHa83SfH21bu1K7P1jX6NF843+eYb2FKajOZDvAAI1R3DEULZetldzbdzXv4ZBja+OXk49mjfmm2uv2nr9HNPdKy9xDyNQM0irLoe2SHXq+xoGGiuWS+17//ytzdMWqt/yCdn3qkd1zNDQqzbiTiZQOky7DaXqjWEv5RKL+7zP1ZISs9QmVKelM2RfqiHmt4qOmE7eb0qgZKh3HkpLe07rSnjlxM+1raknVIsVN2SfqzvHXrXM0pGjGduNCJQM1ClDqXXUtq2EZW1Ozz9UW0yn5Rvz8XTUPlcts3TU1oH/wgRyh+r0odT6erYul31PLW9sq/5ZOlfSMoI9OSYRyBnwm4fSqr1Xy3J60kqDV98MLd5BnqmlFWfiLEggZ7B0UXJ8Fyy9mSTl0iywBGrNO6a7NJ/GLYnTIkavPhD3MAKpA8pQtmu8smwXuV2k1Ll4M6bUlBNT4+X4tqNApCsI1Pxh6SsAdSjSW2hd/A6poyE9bSHH1ro1XommkF7eQeA3AhzBdQbCW3Y9Cq0Ve3lT8vTWlqIBGwhUESg9gs/w1yxPlejLnHfirFpzj6Taa7zLWk+5IwikHsFnGHVA9WcGdkTH1slB/9fpBUoqCOQeLh38WOrc+LF4vF+DgDUH2mu10fdaSa69+vMzBIoIpH4JvsGtL8JQYh3sb5yQH+/2IqAHzuv7XlWh9goCOrwlRbcc+BZ6SmrAJ52A9tvqWYrNN2OufbpaLCEQIZD7JWiFS1kCy896psvwtbHyWDF4NpeA9pC+ze0H2SMERg+oLkhEXvT1aP1RQYcbaP+Uv75/cKiNIlKfmL368zMEqgi0+BLMEeANuC5CasyQn5crNTZ2eQSsXtCDPIZYTyCww5Bay9UC1Q61t6izVQztw5efvntypvBVvxSfVvUQBwI/CIz+EizBbi2GLk9JXC+Gla8k/g0+MLyhy4fXuMMRtFoQOlTeYlpxrGeefyinFefWZ6mclHOq361cqbsTgV2PYAhHbJl0+UKxvu8sv1iu1Ng72D21Wgy+2m/isUPP0JhAgKH9B1JswRNwmiYnMf4yqqlLWdfEMqHzEAKpBBi+OCld2LhHmsXN7JXpzSzSpgWrbgQYvjK0usRlUWyv03ui7E6v1+4yT5chwAD2a4Uue22mU3qlXE6pq7a/+E8iwACOB69HoIWCXfqote+iu0WPiLEoAYZwncbogWilbJUeW/Wtoq0Va+JsSIAhXL9p1vFopXpk/7WOkblb8SLOgQQYxL2bqoelRTU9ZkJ19sjRonZiXEiAYTy36Xp4aistnRVLR2ms2hrwh8AfBBjGP5Bc8cA6TDWFe3Nk5fFsa/LjC4FiAgxkMbrjHK2D1bpI5q01UeJVE2AoqxEeH6DVcWTWjh+VPQtkMPfs2yqqUw8kc7ZKx9ABAQhAAAIQgAAEIAABCEAAAhCAAAQgAAEIQAACEIAABCAAAQhAAAIQgAAEIAABCEAAAhCAAAQgAAEIQAACEIAABCAAAQhAAAIQgAAEIAABCEAAAhCAAAQgAAEIQAACEIAABCAAAQicQuB/VMwPltdO6jcAAAAASUVORK5CYII=;" vertex="1" parent="cd-Q1LWHvFeCxKsnOngN-16">
          <mxGeometry x="23.88" y="29" width="139.24" height="95" as="geometry" />
        </mxCell>
        <mxCell id="cd-Q1LWHvFeCxKsnOngN-17" value="Signalverarbeitung" style="shape=tableRow;horizontal=0;swimlaneHead=0;swimlaneBody=0;top=0;left=0;strokeColor=inherit;bottom=0;right=0;dropTarget=0;fontStyle=0;fillColor=none;points=[[0,0.5],[1,0.5]];portConstraint=eastwest;startSize=40;collapsible=0;recursiveResize=0;expand=0;fontFamily=Fira Sans;fontSource=https%3A%2F%2Ffonts.googleapis.com%2Fcss%3Ffamily%3DFira%2BSans;" vertex="1" parent="cd-Q1LWHvFeCxKsnOngN-2">
          <mxGeometry y="465" width="1160" height="198" as="geometry" />
        </mxCell>
        <mxCell id="cd-Q1LWHvFeCxKsnOngN-18" value="" style="swimlane;swimlaneHead=0;swimlaneBody=0;fontStyle=0;connectable=0;strokeColor=inherit;fillColor=none;startSize=25;collapsible=0;recursiveResize=0;expand=0;fontFamily=Fira Sans;fontSource=https%3A%2F%2Ffonts.googleapis.com%2Fcss%3Ffamily%3DFira%2BSans;" vertex="1" parent="cd-Q1LWHvFeCxKsnOngN-17">
          <mxGeometry x="40" width="187" height="198" as="geometry">
            <mxRectangle width="187" height="198" as="alternateBounds" />
          </mxGeometry>
        </mxCell>
        <mxCell id="cd-Q1LWHvFeCxKsnOngN-19" value="" style="swimlane;swimlaneHead=0;swimlaneBody=0;fontStyle=0;connectable=0;strokeColor=inherit;fillColor=none;startSize=25;collapsible=0;recursiveResize=0;expand=0;fontFamily=Fira Sans;fontSource=https%3A%2F%2Ffonts.googleapis.com%2Fcss%3Ffamily%3DFira%2BSans;" vertex="1" parent="cd-Q1LWHvFeCxKsnOngN-17">
          <mxGeometry x="227" width="186" height="198" as="geometry">
            <mxRectangle width="186" height="198" as="alternateBounds" />
          </mxGeometry>
        </mxCell>
        <mxCell id="cd-Q1LWHvFeCxKsnOngN-20" value="" style="swimlane;swimlaneHead=0;swimlaneBody=0;fontStyle=0;connectable=0;strokeColor=inherit;fillColor=none;startSize=25;collapsible=0;recursiveResize=0;expand=0;fontFamily=Fira Sans;fontSource=https%3A%2F%2Ffonts.googleapis.com%2Fcss%3Ffamily%3DFira%2BSans;" vertex="1" parent="cd-Q1LWHvFeCxKsnOngN-17">
          <mxGeometry x="413" width="187" height="198" as="geometry">
            <mxRectangle width="187" height="198" as="alternateBounds" />
          </mxGeometry>
        </mxCell>
        <mxCell id="cd-Q1LWHvFeCxKsnOngN-21" value="" style="swimlane;swimlaneHead=0;swimlaneBody=0;fontStyle=0;connectable=0;strokeColor=inherit;fillColor=none;startSize=25;collapsible=0;recursiveResize=0;expand=0;fontFamily=Fira Sans;fontSource=https%3A%2F%2Ffonts.googleapis.com%2Fcss%3Ffamily%3DFira%2BSans;" vertex="1" parent="cd-Q1LWHvFeCxKsnOngN-17">
          <mxGeometry x="600" width="187" height="198" as="geometry">
            <mxRectangle width="187" height="198" as="alternateBounds" />
          </mxGeometry>
        </mxCell>
        <mxCell id="cd-Q1LWHvFeCxKsnOngN-22" value="" style="swimlane;swimlaneHead=0;swimlaneBody=0;fontStyle=0;connectable=0;strokeColor=inherit;fillColor=none;startSize=25;collapsible=0;recursiveResize=0;expand=0;fontFamily=Fira Sans;fontSource=https%3A%2F%2Ffonts.googleapis.com%2Fcss%3Ffamily%3DFira%2BSans;" vertex="1" parent="cd-Q1LWHvFeCxKsnOngN-17">
          <mxGeometry x="787" width="186" height="198" as="geometry">
            <mxRectangle width="186" height="198" as="alternateBounds" />
          </mxGeometry>
        </mxCell>
        <mxCell id="cd-Q1LWHvFeCxKsnOngN-23" value="" style="swimlane;swimlaneHead=0;swimlaneBody=0;fontStyle=0;connectable=0;strokeColor=inherit;fillColor=none;startSize=25;collapsible=0;recursiveResize=0;expand=0;fontFamily=Fira Sans;fontSource=https%3A%2F%2Ffonts.googleapis.com%2Fcss%3Ffamily%3DFira%2BSans;" vertex="1" parent="cd-Q1LWHvFeCxKsnOngN-17">
          <mxGeometry x="973" width="187" height="198" as="geometry">
            <mxRectangle width="187" height="198" as="alternateBounds" />
          </mxGeometry>
        </mxCell>
        <mxCell id="cd-Q1LWHvFeCxKsnOngN-24" value="Klangerzeugung" style="shape=tableRow;horizontal=0;swimlaneHead=0;swimlaneBody=0;top=0;left=0;strokeColor=inherit;bottom=0;right=0;dropTarget=0;fontStyle=0;fillColor=none;points=[[0,0.5],[1,0.5]];portConstraint=eastwest;startSize=40;collapsible=0;recursiveResize=0;expand=0;fontFamily=Fira Sans;fontSource=https%3A%2F%2Ffonts.googleapis.com%2Fcss%3Ffamily%3DFira%2BSans;" vertex="1" parent="cd-Q1LWHvFeCxKsnOngN-2">
          <mxGeometry y="663" width="1160" height="198" as="geometry" />
        </mxCell>
        <mxCell id="cd-Q1LWHvFeCxKsnOngN-25" value="" style="swimlane;swimlaneHead=0;swimlaneBody=0;fontStyle=0;connectable=0;strokeColor=inherit;fillColor=none;startSize=30;collapsible=0;recursiveResize=0;expand=0;fontFamily=Fira Sans;fontSource=https%3A%2F%2Ffonts.googleapis.com%2Fcss%3Ffamily%3DFira%2BSans;" vertex="1" parent="cd-Q1LWHvFeCxKsnOngN-24">
          <mxGeometry x="40" width="187" height="198" as="geometry">
            <mxRectangle width="187" height="198" as="alternateBounds" />
          </mxGeometry>
        </mxCell>
        <mxCell id="cd-Q1LWHvFeCxKsnOngN-26" value="" style="swimlane;swimlaneHead=0;swimlaneBody=0;fontStyle=0;connectable=0;strokeColor=inherit;fillColor=none;startSize=30;collapsible=0;recursiveResize=0;expand=0;fontFamily=Fira Sans;fontSource=https%3A%2F%2Ffonts.googleapis.com%2Fcss%3Ffamily%3DFira%2BSans;" vertex="1" parent="cd-Q1LWHvFeCxKsnOngN-24">
          <mxGeometry x="227" width="186" height="198" as="geometry">
            <mxRectangle width="186" height="198" as="alternateBounds" />
          </mxGeometry>
        </mxCell>
        <mxCell id="cd-Q1LWHvFeCxKsnOngN-27" value="" style="swimlane;swimlaneHead=0;swimlaneBody=0;fontStyle=0;connectable=0;strokeColor=inherit;fillColor=none;startSize=30;collapsible=0;recursiveResize=0;expand=0;fontFamily=Fira Sans;fontSource=https%3A%2F%2Ffonts.googleapis.com%2Fcss%3Ffamily%3DFira%2BSans;" vertex="1" parent="cd-Q1LWHvFeCxKsnOngN-24">
          <mxGeometry x="413" width="187" height="198" as="geometry">
            <mxRectangle width="187" height="198" as="alternateBounds" />
          </mxGeometry>
        </mxCell>
        <mxCell id="cd-Q1LWHvFeCxKsnOngN-28" value="" style="swimlane;swimlaneHead=0;swimlaneBody=0;fontStyle=0;connectable=0;strokeColor=inherit;fillColor=none;startSize=30;collapsible=0;recursiveResize=0;expand=0;fontFamily=Fira Sans;fontSource=https%3A%2F%2Ffonts.googleapis.com%2Fcss%3Ffamily%3DFira%2BSans;" vertex="1" parent="cd-Q1LWHvFeCxKsnOngN-24">
          <mxGeometry x="600" width="187" height="198" as="geometry">
            <mxRectangle width="187" height="198" as="alternateBounds" />
          </mxGeometry>
        </mxCell>
        <mxCell id="cd-Q1LWHvFeCxKsnOngN-29" value="" style="swimlane;swimlaneHead=0;swimlaneBody=0;fontStyle=0;connectable=0;strokeColor=inherit;fillColor=none;startSize=30;collapsible=0;recursiveResize=0;expand=0;fontFamily=Fira Sans;fontSource=https%3A%2F%2Ffonts.googleapis.com%2Fcss%3Ffamily%3DFira%2BSans;" vertex="1" parent="cd-Q1LWHvFeCxKsnOngN-24">
          <mxGeometry x="787" width="186" height="198" as="geometry">
            <mxRectangle width="186" height="198" as="alternateBounds" />
          </mxGeometry>
        </mxCell>
        <mxCell id="cd-Q1LWHvFeCxKsnOngN-30" value="" style="swimlane;swimlaneHead=0;swimlaneBody=0;fontStyle=0;connectable=0;strokeColor=inherit;fillColor=none;startSize=30;collapsible=0;recursiveResize=0;expand=0;fontFamily=Fira Sans;fontSource=https%3A%2F%2Ffonts.googleapis.com%2Fcss%3Ffamily%3DFira%2BSans;" vertex="1" parent="cd-Q1LWHvFeCxKsnOngN-24">
          <mxGeometry x="973" width="187" height="198" as="geometry">
            <mxRectangle width="187" height="198" as="alternateBounds" />
          </mxGeometry>
        </mxCell>
        <mxCell id="cd-Q1LWHvFeCxKsnOngN-31" value="Material" style="shape=tableRow;horizontal=0;swimlaneHead=0;swimlaneBody=0;top=0;left=0;strokeColor=inherit;bottom=0;right=0;dropTarget=0;fontStyle=0;fillColor=none;points=[[0,0.5],[1,0.5]];portConstraint=eastwest;startSize=40;collapsible=0;recursiveResize=0;expand=0;fontFamily=Fira Sans;fontSource=https%3A%2F%2Ffonts.googleapis.com%2Fcss%3Ffamily%3DFira%2BSans;" vertex="1" parent="cd-Q1LWHvFeCxKsnOngN-2">
          <mxGeometry y="861" width="1160" height="199" as="geometry" />
        </mxCell>
        <mxCell id="cd-Q1LWHvFeCxKsnOngN-32" value="" style="swimlane;swimlaneHead=0;swimlaneBody=0;fontStyle=0;connectable=0;strokeColor=inherit;fillColor=none;startSize=0;collapsible=0;recursiveResize=0;expand=0;fontFamily=Fira Sans;fontSource=https%3A%2F%2Ffonts.googleapis.com%2Fcss%3Ffamily%3DFira%2BSans;" vertex="1" parent="cd-Q1LWHvFeCxKsnOngN-31">
          <mxGeometry x="40" width="187" height="199" as="geometry">
            <mxRectangle width="187" height="199" as="alternateBounds" />
          </mxGeometry>
        </mxCell>
        <mxCell id="cd-Q1LWHvFeCxKsnOngN-33" value="" style="swimlane;swimlaneHead=0;swimlaneBody=0;fontStyle=0;connectable=0;strokeColor=inherit;fillColor=none;startSize=0;collapsible=0;recursiveResize=0;expand=0;fontFamily=Fira Sans;fontSource=https%3A%2F%2Ffonts.googleapis.com%2Fcss%3Ffamily%3DFira%2BSans;" vertex="1" parent="cd-Q1LWHvFeCxKsnOngN-31">
          <mxGeometry x="227" width="186" height="199" as="geometry">
            <mxRectangle width="186" height="199" as="alternateBounds" />
          </mxGeometry>
        </mxCell>
        <mxCell id="cd-Q1LWHvFeCxKsnOngN-34" value="" style="swimlane;swimlaneHead=0;swimlaneBody=0;fontStyle=0;connectable=0;strokeColor=inherit;fillColor=none;startSize=0;collapsible=0;recursiveResize=0;expand=0;fontFamily=Fira Sans;fontSource=https%3A%2F%2Ffonts.googleapis.com%2Fcss%3Ffamily%3DFira%2BSans;" vertex="1" parent="cd-Q1LWHvFeCxKsnOngN-31">
          <mxGeometry x="413" width="187" height="199" as="geometry">
            <mxRectangle width="187" height="199" as="alternateBounds" />
          </mxGeometry>
        </mxCell>
        <mxCell id="cd-Q1LWHvFeCxKsnOngN-35" value="" style="swimlane;swimlaneHead=0;swimlaneBody=0;fontStyle=0;connectable=0;strokeColor=inherit;fillColor=none;startSize=0;collapsible=0;recursiveResize=0;expand=0;fontFamily=Fira Sans;fontSource=https%3A%2F%2Ffonts.googleapis.com%2Fcss%3Ffamily%3DFira%2BSans;" vertex="1" parent="cd-Q1LWHvFeCxKsnOngN-31">
          <mxGeometry x="600" width="187" height="199" as="geometry">
            <mxRectangle width="187" height="199" as="alternateBounds" />
          </mxGeometry>
        </mxCell>
        <mxCell id="cd-Q1LWHvFeCxKsnOngN-36" value="" style="swimlane;swimlaneHead=0;swimlaneBody=0;fontStyle=0;connectable=0;strokeColor=inherit;fillColor=none;startSize=0;collapsible=0;recursiveResize=0;expand=0;fontFamily=Fira Sans;fontSource=https%3A%2F%2Ffonts.googleapis.com%2Fcss%3Ffamily%3DFira%2BSans;" vertex="1" parent="cd-Q1LWHvFeCxKsnOngN-31">
          <mxGeometry x="787" width="186" height="199" as="geometry">
            <mxRectangle width="186" height="199" as="alternateBounds" />
          </mxGeometry>
        </mxCell>
        <mxCell id="cd-Q1LWHvFeCxKsnOngN-37" value="" style="swimlane;swimlaneHead=0;swimlaneBody=0;fontStyle=0;connectable=0;strokeColor=inherit;fillColor=none;startSize=0;collapsible=0;recursiveResize=0;expand=0;fontFamily=Fira Sans;fontSource=https%3A%2F%2Ffonts.googleapis.com%2Fcss%3Ffamily%3DFira%2BSans;" vertex="1" parent="cd-Q1LWHvFeCxKsnOngN-31">
          <mxGeometry x="973" width="187" height="199" as="geometry">
            <mxRectangle width="187" height="199" as="alternateBounds" />
          </mxGeometry>
        </mxCell>
        <mxCell id="cd-Q1LWHvFeCxKsnOngN-38" value="" style="shape=tableRow;horizontal=0;swimlaneHead=0;swimlaneBody=0;top=0;left=0;strokeColor=inherit;bottom=0;right=0;dropTarget=0;fontStyle=0;fillColor=none;points=[[0,0.5],[1,0.5]];portConstraint=eastwest;startSize=40;collapsible=0;recursiveResize=0;expand=0;fontFamily=Fira Sans;fontSource=https%3A%2F%2Ffonts.googleapis.com%2Fcss%3Ffamily%3DFira%2BSans;" vertex="1" parent="cd-Q1LWHvFeCxKsnOngN-2">
          <mxGeometry y="1060" width="1160" height="198" as="geometry" />
        </mxCell>
        <mxCell id="cd-Q1LWHvFeCxKsnOngN-39" value="" style="swimlane;swimlaneHead=0;swimlaneBody=0;fontStyle=0;connectable=0;strokeColor=inherit;fillColor=none;startSize=0;collapsible=0;recursiveResize=0;expand=0;fontFamily=Fira Sans;fontSource=https%3A%2F%2Ffonts.googleapis.com%2Fcss%3Ffamily%3DFira%2BSans;" vertex="1" parent="cd-Q1LWHvFeCxKsnOngN-38">
          <mxGeometry x="40" width="187" height="198" as="geometry">
            <mxRectangle width="187" height="198" as="alternateBounds" />
          </mxGeometry>
        </mxCell>
        <mxCell id="cd-Q1LWHvFeCxKsnOngN-40" value="" style="swimlane;swimlaneHead=0;swimlaneBody=0;fontStyle=0;connectable=0;strokeColor=inherit;fillColor=none;startSize=0;collapsible=0;recursiveResize=0;expand=0;fontFamily=Fira Sans;fontSource=https%3A%2F%2Ffonts.googleapis.com%2Fcss%3Ffamily%3DFira%2BSans;" vertex="1" parent="cd-Q1LWHvFeCxKsnOngN-38">
          <mxGeometry x="227" width="186" height="198" as="geometry">
            <mxRectangle width="186" height="198" as="alternateBounds" />
          </mxGeometry>
        </mxCell>
        <mxCell id="cd-Q1LWHvFeCxKsnOngN-41" value="" style="swimlane;swimlaneHead=0;swimlaneBody=0;fontStyle=0;connectable=0;strokeColor=inherit;fillColor=none;startSize=0;collapsible=0;recursiveResize=0;expand=0;fontFamily=Fira Sans;fontSource=https%3A%2F%2Ffonts.googleapis.com%2Fcss%3Ffamily%3DFira%2BSans;" vertex="1" parent="cd-Q1LWHvFeCxKsnOngN-38">
          <mxGeometry x="413" width="187" height="198" as="geometry">
            <mxRectangle width="187" height="198" as="alternateBounds" />
          </mxGeometry>
        </mxCell>
        <mxCell id="cd-Q1LWHvFeCxKsnOngN-42" value="" style="swimlane;swimlaneHead=0;swimlaneBody=0;fontStyle=0;connectable=0;strokeColor=inherit;fillColor=none;startSize=0;collapsible=0;recursiveResize=0;expand=0;fontFamily=Fira Sans;fontSource=https%3A%2F%2Ffonts.googleapis.com%2Fcss%3Ffamily%3DFira%2BSans;" vertex="1" parent="cd-Q1LWHvFeCxKsnOngN-38">
          <mxGeometry x="600" width="187" height="198" as="geometry">
            <mxRectangle width="187" height="198" as="alternateBounds" />
          </mxGeometry>
        </mxCell>
        <mxCell id="cd-Q1LWHvFeCxKsnOngN-43" value="" style="swimlane;swimlaneHead=0;swimlaneBody=0;fontStyle=0;connectable=0;strokeColor=inherit;fillColor=none;startSize=0;collapsible=0;recursiveResize=0;expand=0;fontFamily=Fira Sans;fontSource=https%3A%2F%2Ffonts.googleapis.com%2Fcss%3Ffamily%3DFira%2BSans;" vertex="1" parent="cd-Q1LWHvFeCxKsnOngN-38">
          <mxGeometry x="787" width="186" height="198" as="geometry">
            <mxRectangle width="186" height="198" as="alternateBounds" />
          </mxGeometry>
        </mxCell>
        <mxCell id="cd-Q1LWHvFeCxKsnOngN-44" value="" style="swimlane;swimlaneHead=0;swimlaneBody=0;fontStyle=0;connectable=0;strokeColor=inherit;fillColor=none;startSize=0;collapsible=0;recursiveResize=0;expand=0;fontFamily=Fira Sans;fontSource=https%3A%2F%2Ffonts.googleapis.com%2Fcss%3Ffamily%3DFira%2BSans;" vertex="1" parent="cd-Q1LWHvFeCxKsnOngN-38">
          <mxGeometry x="973" width="187" height="198" as="geometry">
            <mxRectangle width="187" height="198" as="alternateBounds" />
          </mxGeometry>
        </mxCell>
      </root>
    </mxGraphModel>
  </diagram>
</mxfile>
